<svg version="1.2" xmlns="http://www.w3.org/2000/svg" viewBox="0 0 800 89" width="800" height="89">
	<title>New Project</title>
	<style>
		.s0 { fill: #ffffff } 
	</style>
	<path id="HUSKIE ROBOTICS" class="s0" aria-label="HUSKIE ROBOTICS"  d="m222.3 64h11v-15.9h14.6v15.9h11.1v-40.7h-11.1v15.9h-14.6v-15.9h-11zm66-40.6v25.1c0 3.8-2.7 6.5-6.5 6.5-3.8 0-6.5-2.7-6.5-6.5v-25.1h-11.1v26c0 9.3 7.1 15.1 17.6 15.1 10.4 0 17.5-5.8 17.5-15.1v-26zm38.2 12.7h10.6c0-8-6.2-13.3-16-13.3-9.7 0-16.5 5.2-16.5 13 0 6.3 4.4 9.8 11.6 11.4l4.1 0.9c4.5 1 6 2.1 6.1 3.9-0.1 2-1.9 3.5-5.4 3.5-4.2 0-6.7-2-6.9-5.8h-10.5c0 10.2 6.9 14.8 17.5 14.8 10.3 0 16.5-4.4 16.6-12.5-0.1-6.2-3.8-10.5-12.7-12.4l-3.4-0.7c-3.8-0.9-5.6-2-5.5-3.9 0.1-1.8 1.5-3.1 5-3.1 3.5 0 5.2 1.5 5.4 4.2zm15.4 27.9h11v-10.5l3.7-4.7 9.1 15.2h13.2l-14.1-22.5 13.8-18.1h-12.9l-12.2 16.4h-0.6v-16.4h-11zm51-40.7h-11.1v40.7h11.1zm5.2 40.6h29.2v-8.9h-18.2v-7h16.8v-8.8h-16.8v-7h18.3v-8.9h-29.3zm45.9 0h11.1v-13.5h3.8l7.1 13.5h12l-8.2-15.2c4.3-2.1 6.9-6 6.9-11.7 0-8.6-6.1-13.8-15.1-13.8h-17.6zm11.1-22v-9.9h3.8c3.9 0 6.2 1.6 6.2 5.1 0 3.4-2.3 4.8-6.2 4.8zm65.7 1.7c0-13.6-8.7-20.9-19.7-20.9-11.2 0-19.8 7.3-19.8 20.9 0 13.5 8.6 20.9 19.8 20.9 11 0 19.7-7.4 19.7-20.9zm-11.3 0c0 7.3-3 11.2-8.4 11.2-5.5 0-8.5-3.9-8.5-11.2 0-7.3 3-11.3 8.5-11.3 5.4 0 8.4 4 8.4 11.3zm16.4 20.3h19.2c8.8 0 14.3-4.8 14.3-11.5 0-5.8-4.3-9.5-9.5-9.7v-0.4c4.7-0.9 7.9-4.4 7.9-8.9 0-6.2-5-10.2-14.2-10.2h-17.7zm11.1-8.8v-8.6h5.3c3.3 0 5.4 1.6 5.4 4.5 0 2.7-1.9 4.1-5.6 4.1zm0-15.4v-7.8h4.7c2.8 0 4.8 1.4 4.8 3.9 0 2.5-2 3.9-4.9 3.9zm65.6 3.9c0-13.6-8.7-20.9-19.7-20.9-11.2 0-19.8 7.3-19.8 20.9 0 13.5 8.6 20.9 19.8 20.9 11 0 19.7-7.3 19.7-20.9zm-11.3 0c0 7.3-3 11.3-8.4 11.3-5.5 0-8.5-4-8.5-11.3 0-7.3 3-11.3 8.5-11.3 5.4 0 8.4 4 8.4 11.3zm13.4-11.4h12.2v31.7h10.9v-31.7h12.2v-8.9h-35.3zm50.5-8.9h-11v40.6h11zm43.2 15.3c-0.8-10.1-8.2-15.8-18.5-15.8-10.9 0-19.6 7.3-19.6 20.9 0 13.5 8.4 20.9 19.6 20.9 11.9 0 18-8.3 18.5-15.2l-11.2-0.1c-0.5 3.5-3 5.6-7 5.6-5.4 0-8.5-3.8-8.5-11.2 0-7.1 3-11.3 8.5-11.3 4.3 0 6.7 2.5 7 6.2zm27-2.6h10.5c0-7.9-6.2-13.2-16-13.2-9.7 0-16.5 5.2-16.5 12.9 0 6.4 4.4 9.9 11.6 11.5l4.1 0.8c4.5 1 6.1 2.2 6.1 4 0 2-1.9 3.4-5.4 3.4-4.2 0-6.7-2-6.9-5.7h-10.5c0 10.2 7 14.8 17.6 14.8 10.3 0 16.4-4.5 16.5-12.5-0.1-6.2-3.8-10.5-12.7-12.5l-3.4-0.7c-3.8-0.8-5.5-1.9-5.4-3.9 0-1.8 1.5-3.1 4.9-3.1 3.6 0 5.2 1.6 5.5 4.2z"/>
	<path fill-rule="evenodd" class="s0" d="m79.1 0.4c-0.4 0.3-1 1-1.4 1.6-0.9 1.4-1.1 1.7-1.2 1.9 0 0.1-0.2 0.3-0.3 0.5-0.1 0.1-0.2 0.4-0.4 0.7-0.1 0.2-0.4 0.8-0.7 1.3-0.8 1.5-1.1 2.1-1.1 2.2 0 0.1-0.2 0.5-0.4 0.8-0.4 0.8-0.8 2-0.8 2.3 0 0.2-0.1 0.4-0.2 0.6q-0.6 2-0.7 3.4c0 0.3-0.1 0.8-0.2 1.1-0.1 0.3-0.1 0.7-0.1 0.9 0 0.3-0.1 0.6-0.1 0.7-0.3 0.6-0.3 5.3-0.1 6.4 0.1 0.3 0 0.4-0.3 0.8-0.9 1-1.6 2.3-1.9 3.3 0 0.3-0.1 0.6-0.2 0.8-0.2 0.9-0.3 2.3-0.2 2.6 0.1 0.1 0.3 0.1 0.7 0.1 0.8 0 1.7 0.3 1.8 0.6 0 0.1-0.2 0.5-0.5 1.2-0.3 0.5-0.7 1.3-0.9 1.6-0.1 0.3-0.3 0.7-0.4 0.8-0.1 0.1-0.3 0.3-0.3 0.5-0.1 0.2-0.4 0.5-0.5 0.7-0.2 0.2-0.4 0.6-0.5 0.8-0.1 0.3-0.3 0.7-0.5 0.9-0.1 0.3-0.4 0.8-0.5 1.1-0.2 0.3-0.4 0.6-0.5 0.6-0.1 0.1-0.4 0.4-0.6 0.7-0.3 0.5-1.2 1.8-1.3 2 0 0-0.2 0.2-0.3 0.4-0.4 0.5-0.4 1.2 0 1.7 0.1 0.2 0.4 0.5 0.5 0.8 0.1 0.2 0.3 0.5 0.4 0.6 0.1 0.1 0.3 0.4 0.5 0.8 0.1 0.4 0.5 1 0.6 1.3 0.2 0.3 0.4 0.6 0.5 0.8 0 0.1 0.1 0.3 0.3 0.5 0.1 0.2 0.3 0.5 0.4 0.7 0.4 0.8 1.2 1.9 1.9 3 0.5 0.8 1.1 1.7 1.1 1.8 0 0 0.1 0.2 0.2 0.4 0.2 0.3 0.4 0.6 1 1.7 0.1 0.2 0.3 0.5 0.4 0.6 0 0.1 0.1 0.2 0.1 0.3 0.2 0.3 1.2 2 1.8 2.7 0.3 0.5 0.7 1.1 1 1.4 1 1.5 1.4 2 1.6 2.2 0.1 0.1 0.3 0.4 0.4 0.7 0.2 0.2 0.4 0.5 0.5 0.6 0.1 0.1 0.2 0.2 0.2 0.3 0 0 0.2 0.4 0.4 0.7 0.3 0.4 0.6 0.9 0.8 1.2 0.1 0.3 0.4 0.7 0.5 0.8 0.1 0.2 0.4 0.6 0.6 0.9 2.2 3.1 2.7 3.4 2.7 1.2 0-2.4 0.1-2.5 1.3-1 0.2 0.3 0.4 0.5 0.5 0.6 0.1 0.1 0.4 0.5 0.8 1.1 0.7 1.1 0.9 1.3 1.3 1.8 0.2 0.2 0.3 0.5 0.4 0.6 0.5 0.9 1.7 2.2 2.8 3.1 0.4 0.3 1.3 1 1.4 1 0.1 0 0.4 0.2 0.8 0.5 0.9 0.6 1.3 0.8 2.3 1.1 0.8 0.3 0.8 0.2 1.2 1.3 0.2 0.5 0.5 1.1 0.6 1.3 0.2 0.2 0.3 0.5 0.3 0.5 0 0.4 2.5 2.6 3.9 3.4 0.3 0.2 0.8 0.4 1 0.5 1 0.6 2.3 0.6 2.3 0 0-0.2 0.4-0.3 0.5-0.1 0 0 0.1 0.3 0.1 0.6 0.1 0.6 0 0.6 1 0.7 0.9 0 0.9 0 1-0.6 0.1-0.6 1-0.8 1-0.2 0 0.3 0.3 0.5 0.8 0.4 0.8-0.1 1.2-0.4 1.2-1.1-0.1-0.3 0-0.3 0.4-0.5l0.4-0.2 0.2 0.2c0.8 0.6 1.8-0.3 1.5-1.2l-0.2-0.4 0.3-0.3c0.2-0.3 0.2-0.3 0.5-0.2 0.2 0.2 0.6 0.1 0.7-0.2 0.1-0.1 0.3-0.3 0.5-0.5 0.4-0.4 0.4-0.6 0-0.9-0.5-0.4-0.5-0.6 0-0.8 0.4-0.2 0.4-0.2 0.4-0.5-0.1-1.1-0.1-1.2 0.1-1.3 0.1 0 0.2 0.1 0.2 0.1 0 0.6 0.9 0.7 1.5 0.1 0.5-0.5 0.5-0.7 0.1-1.1l-0.3-0.4 0.2-0.3c0.2-0.4 0.4-0.4 0.7-0.2 0.2 0.1 0.5 0.2 0.9 0.2h0.6l0.1 0.4 0.2 0.3h0.7c0.6-0.1 2.2-0.6 2.3-0.9 0.3-0.5 0.5-0.9 0.5-1.1 0.1-0.4 0.4-0.5 0.7-0.4q1.3 0.5 2.4-1.1c0.1-0.3 0.4-0.5 0.5-0.5 0.2-0.1 0.3-0.5 0.1-0.9q-0.4-0.8 0.7-0.6 0.6 0.1 0.8-0.4c0.1-0.6 0.6-1.6 0.9-2 0.2-0.4 0.3-0.9 0.1-1.1-0.1-0.1-0.2-0.2-0.2-0.2 0-0.1-0.1-0.3-0.3-0.5-0.3-0.6-0.3-0.7 0.2-1l0.3-0.2-0.1-0.6c-0.1-1.5 0-2.1 0.7-2.1 0.5 0 1 0.5 1 0.9 0 0.4 1.1 0.4 1.7 0 0.2-0.1 0.5-0.3 0.7-0.4 0.3-0.1 0.4-0.3 0.1-0.7-0.1-0.1-0.2-0.3-0.2-0.5-0.1-0.1-0.1-0.2-0.2-0.3-0.2-0.1 0.1-0.7 0.9-1.5 0.3-0.4 0.5-0.5 1-0.2q1.4 0.7 2-1.5c0.1-0.5-0.6-1.3-1.1-1.3-0.2 0-0.4-0.3-0.3-0.7 0.1-0.2 0.1-0.6 0.1-0.7 0-0.5 0.2-0.6 0.9-0.5 0.7 0 0.9-0.3 0.9-1.6 0-1.1-0.3-1.3-2.5-1.3-0.4 0-0.5 0-0.6-0.2-0.1-0.2 0.9-1.4 2-2.4 1.3-1 1.3-1.1 0.5-1.9-0.4-0.4-0.6-0.6-0.5-0.7 0.3-1.2 0.3-1.3 0.6-1.3 0.1 0 0.4-0.1 0.6-0.2 0.1-0.1 0.4-0.2 0.5-0.2q0.4-0.1 0.2-1.2c-0.4-1.4-0.3-1.4 0.5-1.5 0.7-0.1 0.8-0.2 0.6-1-0.1-0.7-0.1-0.7 0.5-1.1 0.6-0.4 0.6-0.9 0.2-1.5-0.2-0.3-0.2-0.4-0.1-0.5 0.7-1 0.5-1.9-0.6-2.1-0.2-0.1-0.3-0.1-0.3-0.5-0.2-1.1-0.4-1.4-0.9-1.3-0.2 0-0.6 0.1-0.8 0.1l-0.5 0.1-0.6-0.6c-0.4-0.5-0.5-0.6-0.5-0.9 0-0.3 0.5-0.4 0.7-0.2 0.3 0.3 0.8 0.1 1.1-0.5 0.1-0.2 0.3-0.5 0.5-0.6 0.3-0.5 0.4-0.7 0.2-1.1-0.2-0.4-0.2-0.6 0.2-0.7 0.5-0.2 0.6-0.3 0.7-1.5 0.2-1 0.2-1 0-1.3-0.1-0.3 0-0.5 0.3-0.5 0.6 0 1.1-1.1 0.8-1.7-0.2-0.4 0.2-0.9 0.7-0.9 0.4 0 0.7-0.4 0.9-1.1 0-0.4-0.2-0.8-0.4-0.8-0.2 0-0.2-0.2-0.2-0.5 0.1-0.4 0.2-0.5 0.5-0.5 0.5 0 0.6-0.2 0.5-0.9-0.1-0.9-0.1-1-0.6-1.1-0.5-0.1-0.6-0.7-0.2-1 0.4-0.2 0.4-0.4 0-1.1-0.3-0.6-0.4-0.7-0.9-0.5q-0.6 0.3-0.3-0.4c0.2-0.7 0.3-1.3 0.1-1.6l-0.1-0.3 0.3 0.1c0.6 0.1 0.8 0 1.2-0.8 0.3-0.6 0.3-0.7 0.2-1.6-0.1-0.2-0.1-0.3 0.2-0.4 0.1 0 0.3-0.1 0.3-0.1 0.2-0.1 0.7-1.3 0.7-1.9l0.1-0.5-0.4-0.3c-0.5-0.4-0.5-0.6-0.3-1 0.1-0.1 0.1-0.3 0.1-0.8-0.1-1-0.2-1.2-1-1.4-0.9-0.3-0.9-0.3-0.8-0.9 0-0.6 0-0.7-1.1-1.1-0.9-0.5-1-0.4-1.6 0.2-0.5 0.6-0.7 0.7-0.7 0.2 0-0.1-0.1-0.5-0.3-0.8-0.2-0.6-0.3-1.1 0-0.8 0.3 0.3 0.7 0.1 0.7-0.4 0-0.1 0.1-0.3 0.1-0.4 0.2-0.2 0.2-0.6 0-0.7-0.2-0.1-0.1-0.4 0.1-0.7l0.2-0.2-0.2-0.5c-0.1-0.4-0.2-0.5-0.5-0.7-0.3-0.1-0.3-0.2-0.3-0.5 0-0.5-0.6-1.1-1.1-1.1-0.1 0-0.3-0.1-0.5-0.2-0.2-0.2-0.3-0.2-1-0.1-1 0.1-1.1 0.1-1 0.5 0 0.3-0.2 0.4-0.5 0.2-0.3-0.3-0.5-0.3-1 0.1-0.2 0.2-0.4 0.3-0.5 0.3-0.2 0.1-0.2 0.5 0 0.7q0.4 0.4-0.1 0.4c-0.4-0.1-0.5 0-0.7 0.4-0.1 0.2-0.2 0.3-0.3 0.3-0.3 0-0.4 0.2-0.3 0.7 0 0.5 0 0.5-0.6 0.7-0.3 0-0.3 0-0.5-0.2-0.3-0.3-0.7-0.3-0.9-0.1-0.1 0.1-0.1 0.1-0.2 0.1-0.7 0-1.1 0.9-0.6 1.4 0.6 0.5 0.3 1.1-0.5 1h-0.4l-0.4 0.6c-0.4 0.8-0.4 1 0.4 1.4 1.3 0.7 0.2 1.9-1.2 1.4-0.2 0-0.6-0.1-0.8-0.2-0.2 0-0.5-0.1-0.7-0.2-0.5-0.3-0.7-0.2-0.8 0.8 0 0.5-0.1 0.9-0.2 0.9-0.2 0.2-2.4 0.3-2.5 0.1-0.3-0.7-0.9-1.2-1.3-1.1 0 0.1-0.5 0.5-1 1-1 0.9-1.7 1.3-2.3 1.4-0.6 0.1-0.6 0.4-0.1 0.9l0.5 0.5-0.2 0.2c-0.1 0.2-0.3 0.5-0.5 0.7-0.4 0.6-1 1.4-1 1.5 0 0-0.1 0.1-0.3 0.2l-0.4 0.2-0.3-0.4c-0.3-0.4-0.4-0.7-0.3-1.2 0.3-0.8 0.3-0.9-0.1-1.2-0.7-0.5-1.5-1-2.1-1.2-0.3-0.2-0.6-0.3-0.7-0.4-0.4-0.4-1.2-0.3-1.3 0.3-0.1 0.5-0.2 0.5-1 0.5h-0.9l-0.1-0.3c-0.1-0.1-0.2-0.5-0.2-0.7 0-0.5-0.3-0.6-0.7-0.3-0.8 0.6-1 0.7-1.1 0.7-0.1 0-0.5 0.2-0.9 0.3-0.8 0.4-1.4 0.5-3.5 0.3-1.4-0.1-5.5 0-6.9 0.2-0.4 0-0.9 0.1-1.1 0.1-0.2 0-0.5 0-0.6 0.1-0.8 0.4-1.4 0.2-1.5-0.5-0.1-0.1-0.1-0.3-0.2-0.4 0-0.1-0.2-0.5-0.3-0.9-0.4-1-0.6-1.5-1.2-2.5-0.2-0.4-0.4-0.8-0.4-0.9 0-0.1-1-1.7-1.5-2.4-0.2-0.3-0.5-0.8-0.6-1-0.4-0.9-1.4-2.2-2.5-3.5-0.3-0.2-0.5-0.6-0.6-0.8-0.2-0.4-0.7-0.9-1.1-1.1-0.1-0.1-0.3-0.2-0.5-0.3q-0.6-0.3-1.2 0.3zm1.5 0.7c0.3 0.3 0.6 0.6 0.7 0.7 0.1 0.2 0.3 0.4 0.4 0.6 0.2 0.2 0.4 0.5 0.6 0.7 0.1 0.2 0.4 0.5 0.6 0.8 0.2 0.2 0.6 0.8 0.8 1.2 0.7 1 0.7 1 1 1.6 0.2 0.2 0.4 0.6 0.5 0.7 0.1 0.2 0.3 0.5 0.5 0.7 0.8 1.1 2.8 5.4 3 6.6 0 0.3 0.1 0.5 0.1 0.6 0.2 0.2 0.3 0.2 1.8-0.3 1.1-0.3 7-0.5 9.8-0.3 1.4 0.1 2.2 0 2.7-0.3 0.1-0.1 0.3-0.2 0.5-0.2 0.2 0 0.5-0.2 0.7-0.3 0.6-0.4 0.7-0.4 0.9 0.3 0.1 0.6 0.3 0.7 0.8 0.5 0.5-0.1 0.8-0.1 1.2 0 0.4 0.1 0.6 0 1-0.6 0.3-0.5 0.3-0.5 1.1-0.1 1.9 1.1 2.3 1.5 1.7 2.2-0.3 0.3-0.3 0.5 0 0.8 0.2 0.1 0.4 0.5 0.6 0.8 0.3 0.6 0.3 0.6 1 0.5 0.5-0.1 0.5 0 0.6 1 0 0.4 0 0.9 0.1 1.2 0 0.5 0 0.6-0.6 0.7-0.4 0.1-0.5 0.3-0.4 0.8q0 0.3-0.2 1.1c-0.3 1.1-0.3 1.4 0.2 1.6 0.6 0.3 0.6 0.4 0 1-0.3 0.3-0.7 0.7-0.9 1-0.6 0.7-0.6 0.7-1.1 0.4-0.4-0.2-1.3-0.3-2-0.1-0.5 0.2-0.5 0.2-0.5 1 0.1 0.6-0.1 0.7-0.9 0.6-0.3 0-0.9 0-1.4 0.1-1.1 0.1-1.2 0-1.1-0.6 0.1-0.6 0-0.8-0.5-1-0.3-0.2-0.6-0.4-0.8-0.6-0.5-0.4-0.9-0.3-1.6 0.3-0.2 0.2-0.4 0.3-0.5 0.3-0.5 0-1.2 1.6-1.4 3.3-0.6 3.4-0.7 4.5-0.7 5.3 0 0.4-0.1 1.4-0.1 2.2-0.1 0.8-0.2 1.9-0.2 2.6 0 0.6 0 1.3-0.1 1.6 0 0.3-0.1 0.7-0.1 0.9 0 0.3 0 0.4-0.9 1.2-0.5 0.5-1.1 1.2-1.3 1.4-0.2 0.3-0.5 0.7-0.8 0.9q-0.4 0.5-0.9 1.5c-0.6 1.3-0.7 1.3-0.9 0.6-0.1-0.4-0.2-0.8-0.3-1-0.2-0.7-0.4-1.6-0.3-2 0.1-0.5 0-0.7-0.5-0.7-0.4 0-2.5-0.9-3.7-1.7q-1.8-1.1-3.1-3.5l-0.3-0.6 0.2-0.1c0.6-0.3 1.7-0.6 2.7-0.6 1.5-0.1 1.7-0.3 1.1-0.8q-0.8-0.6 0.4-0.5c1.2 0.1 1.6 0.3 2.4 1.5 0.7 1 0.5 1.2-1.1 0.9-0.4-0.1-0.6 0-0.5 0.6 0 0.6-0.2 0.6-0.6 0.1-0.7-1.1-0.8-1.2-1-1.2-0.1 0.1-0.5 0.2-0.8 0.2-0.9 0.2-0.9 0.5-0.4 1.8 0.5 1.5 1.4 2.2 3 2.4 1.6 0.1 2.9-1.2 2.6-2.6q-0.2-0.7 0.9 0.8c1.5 2 1.9 1.9 2.7-0.6 0.2-0.5 0.2-6.2 0-6.6 0-0.1-0.1-0.5-0.1-1 0-0.5-0.1-1-0.1-1.1-0.1-0.2-0.1-0.5-0.2-0.7 0-0.6-0.7-1.4-1.6-2.1-1-0.7-1.7-1.2-1.9-1.2-0.1 0-0.4-0.2-0.6-0.4-0.7-0.4-1.3-0.7-1.8-0.7l-0.4-0.1-0.7 1.4c-0.4 0.8-0.9 1.7-1.1 2.1-0.6 0.9-0.4 1 0.7 0.7 0.2 0 0.2 0.3-0.1 0.7-0.1 0.2-0.4 0.6-0.6 0.9-0.2 0.3-0.8 0.9-1.3 1.4-0.6 0.5-1.3 1.1-1.6 1.4-0.7 0.6-2.4 1.7-3.1 2.1-0.9 0.4-1.1 0.8-0.8 1.6 0.1 0.3 0.2 1.1 0.3 3.7q0 1.4 0.1 1.7c0.1 0.2 0.2 0.4 0.2 0.5 0 0.1 0 0.3 0 0.4 0.1 0.2 0.2 0.6 0.3 0.9 0.3 1.1 0.3 1.2 0.1 1.2-0.1 0-0.2-0.2-0.9-1.2-0.8-1.1-1.5-2.8-2.2-5.2l-0.3-0.7-0.7-0.1c-0.4-0.1-1-0.2-1.3-0.3-0.4-0.1-0.9-0.2-1.2-0.2-0.2 0-0.6-0.1-0.8-0.2-0.2 0-0.7-0.1-1.2-0.2-0.4-0.1-1-0.2-1.1-0.3-0.4-0.2-0.7 0.1-1 0.8-0.1 0.2-0.4 0.7-0.8 1.3-1 1.7-1 1.6-0.8 1.8 0.1 0.2 0.2 0.3 0.3 0.3 0.2 0 1.6 0.7 1.7 0.8 0.1 0.2 0.1 0.2-0.6 0.5-0.4 0.1-0.8 0.3-0.8 0.3 0 0.1-0.1 0.1-0.2 0.1-0.2 0-1.6 0.9-1.6 1 0 0.3 0 0.5 0.5 1.4 0.4 0.9 1.3 2.9 1.9 4 0.2 0.2 0.2 0.5 0.2 0.5 0.1 0.1 0.2 0.4 0.4 0.8 0.2 0.3 0.4 0.7 0.5 1 0.2 0.2 0.3 0.4 0.4 0.5 0 0.1 0.2 0.3 0.3 0.6 0.1 0.2 0.4 0.6 0.5 0.8 0.2 0.2 0.3 0.4 0.3 0.4 0 0.1 0.1 0.2 0.2 0.2 0 0.1 0.1 0.2 0.1 0.3 0 0 0.2 0.4 0.4 0.7 0.2 0.3 0.5 0.8 0.7 1.1 0.4 0.7 2 3 2.5 3.7 0.5 0.8 1.6 1.9 1.9 1.9 0.2 0 0.5-0.6 0.7-1.2 0.1-0.2 0.2-0.4 0.2-0.4 0.1-0.1 0.2 0 0.5 0.7 0.5 0.7 0.8 1.3 1.1 1.8 0.2 0.2 0.4 0.7 0.6 0.9 1.3 2.6 2 3.6 3.8 5.3 1.3 1.3 2.2 1.9 2.6 1.7 0.4-0.3 0.2-3.5-0.3-4.1 0 0-0.3-0.6-0.5-1.3-0.3-0.7-0.6-1.4-0.8-1.6-0.5-0.7-0.3-0.8 0.7-0.1 1.9 1.1 3.7 2.7 4.5 4 0 0.1 0.2 0.4 0.3 0.6 0.1 0.2 0.3 0.5 0.4 0.8 0.2 0.5 0.6 1.4 1.2 2.6 0.2 0.5 0.4 0.9 0.4 1 0 0.1 0.1 0.3 0.2 0.5 0.1 0.2 0.2 0.4 0.2 0.4 0 0.1 0.1 0.4 0.3 0.8 0.2 0.4 0.5 1 0.6 1.4 0.2 0.4 0.4 1 0.6 1.4 0.2 0.3 0.4 0.7 0.4 0.8 0.5 1.5 3.7 3.9 4.1 2.9 0-0.2-0.1-0.5-0.3-0.5-0.6 0-1.6-0.8-2.6-2-0.5-0.7-1.8-3-1.8-3.4 0-0.1-0.2-0.6-0.5-1.2-0.2-0.6-0.5-1.2-0.5-1.4-0.1-0.2-0.3-0.7-0.5-1-0.2-0.4-0.4-0.7-0.4-0.8 0-0.1-0.2-0.6-0.4-1.1-0.3-0.6-0.5-1.1-0.5-1.1 0-0.1-0.2-0.4-0.4-0.8-0.3-0.3-0.6-0.7-0.7-0.9-0.2-0.4-0.7-1-1.2-1.5-0.2-0.3-1.4-1.2-1.8-1.4-2-1.3-2.6-1.6-3-2-1.2-0.9-1.2-0.9-1.4-0.7q-0.3 0.3 0.2 0.9c0.3 0.2 1.3 1.9 1.3 2 0 0.1 0.1 0.4 0.3 0.8 0.2 0.3 0.5 1 0.7 1.4 0.1 0.5 0.3 1 0.4 1.1q0.1 0.4 0.3 1.4c0.1 0.5 0 1-0.1 1-0.3 0.1-2.2-1.8-3.4-3.3-0.5-0.7-1.4-2.1-1.8-2.8 0-0.1-0.3-0.7-0.6-1.1-0.3-0.5-0.6-0.9-0.6-0.9 0 0-0.1-0.2-0.2-0.4-0.1-0.1-0.2-0.4-0.3-0.6-0.1-0.3-0.6-1.1-0.9-1.4-0.3-0.4-0.7-0.1-0.8 0.7-0.2 1.2-0.7 1.1-1.8-0.5-0.2-0.3-0.3-0.6-0.4-0.6 0-0.1-0.2-0.4-0.4-0.7-0.2-0.3-0.5-0.7-0.7-0.9-0.2-0.2-0.4-0.6-0.4-0.7-0.2-0.3-0.3-0.5-1.1-1.5-0.2-0.3-0.5-0.8-0.6-1-0.1-0.2-0.3-0.6-0.4-0.8-0.1-0.2-0.4-0.6-0.5-0.9-0.2-0.3-0.4-0.6-0.5-0.7 0-0.1-0.2-0.5-0.4-0.8-0.2-0.4-0.4-0.8-0.5-0.9-0.1-0.1-0.3-0.6-0.5-1-0.2-0.5-0.5-1-0.6-1.1-0.1-0.2-0.4-0.8-1.2-2.6-0.3-0.6-0.3-0.7-0.1-0.9 0.1-0.2 1.5-0.9 1.7-0.9 0.1 0 0.4-0.1 0.7-0.3 0.3-0.2 0.7-0.3 0.9-0.3 0.3 0 0.5-0.1 0.5-0.3 0-0.3-0.3-0.6-2-1.4-0.8-0.4-0.9-0.4-0.3-1.3 0.3-0.4 0.7-1 0.8-1.3 0.4-0.7 0.3-0.7 3.3 0 1.1 0.3 2.4 0.6 2.8 0.6q0.1 0.1 0.3 0.5c0.1 0.2 0.2 0.6 0.3 0.7 0.1 0.2 0.1 0.4 0.1 0.5 0 0.1 0.1 0.4 0.3 0.7 0.1 0.3 0.3 0.8 0.4 1.1 0.7 2.1 2.6 4.5 3.5 4.5 0.5 0 0.6-0.1 0.4-0.7-0.1-0.3-0.2-0.7-0.3-0.8 0-0.2-0.1-0.7-0.2-1.1-0.1-0.4-0.3-1-0.4-1.4-0.2-0.7-0.5-3-0.5-4.3 0-0.5 0-1.2-0.1-1.5-0.2-0.8-0.2-0.8 0.7-1.2 1.5-0.9 3.3-2.3 5.2-4.2 0.4-0.4 0.8-0.8 0.8-0.9 0 0 0.1-0.2 0.3-0.4 0.7-0.9 0.9-2.5 0.4-2.5-0.4 0-0.4 0 0.7-1.9l0.3-0.5 0.5 0.2c0.3 0.2 0.7 0.4 0.9 0.5 0.2 0.2 0.5 0.4 0.7 0.5 1.3 0.7 2.7 1.8 3 2.4 0.2 0.4 0.5 2.4 0.5 3.5 0 0.1 0.1 1.2 0.1 2.6 0.1 2.6 0.1 2.7-0.4 3.9-0.3 0.7-0.3 0.7-1.1-0.3-0.2-0.3-0.5-0.7-0.6-0.8-0.1-0.1-0.2-0.3-0.3-0.4-0.1-0.1-0.2-0.3-0.4-0.4-0.1-0.1-0.5-0.6-0.8-1.1-1-1.5-1.4-1.8-2.6-2-2-0.3-2.4-0.3-2.5-0.3-0.1 0.1 0 0.6 0.2 1 0.3 0.4 0.2 0.5-0.7 0.6-0.7 0-0.9 0.1-1.5 0.3-0.2 0.1-0.5 0.2-0.7 0.3-0.5 0.1-0.6 0.6-0.2 1.3 0.7 1.5 1.1 2 1.7 2.7 0.7 0.6 2 1.7 2.2 1.7 0.1 0 0.5 0.2 1 0.6 0.4 0.2 1.4 0.6 1.9 0.8l0.6 0.1v0.7c0.1 0.8 0.1 0.7 0.5 2.2q1.1 3.4 1.6 1.6c0.2-0.5 0.5-1.3 1-2.2 0.1-0.3 0.5-0.7 1.6-2 0.3-0.3 0.8-0.9 1.3-1.4l0.8-0.8 0.1-1.9c0.1-1.1 0.2-3.1 0.2-4.5 0.1-1.3 0.2-2.6 0.2-2.8 0.1-0.2 0.1-0.7 0.2-1.2 0.3-3 0.8-4.9 1.3-5.3 1.3-1 1.3-1 2-0.5l0.6 0.4v0.4c0 0.5 0 0.6-0.2 0.8-0.3 0.3-0.9 1.1-0.9 1.3 0 0.2 0.3 0.4 1 0.9 0.5 0.3 0.6 0.5 0.3 0.7-0.1 0.1-0.4 0.7-0.4 0.9 0 0.3-0.4 0.5-0.9 0.4-0.9-0.3-1-0.3-1.1-0.1-0.1 0.1-0.1 0.3-0.1 0.3 0.1 0.2-0.2 1.1-0.3 1.2-0.3 0.3 0 0.7 0.6 0.9 0.1 0 0.3 0.1 0.4 0.2 0 0 0.2 0.1 0.4 0.1 0.3 0.1 0.3 0.2 0.1 0.8-0.1 0.4-0.2 0.8-0.2 1.1l-0.1 0.5-0.5 0.1c-0.6 0-0.6 0.1-0.7 1.2 0 1.8 0.2 2 1.2 1.9 0.5 0 0.7 0.1 0.7 0.5 0 0.2 0.1 0.4 0.2 0.6 0.3 0.4 0.1 0.6-0.8 1.4q-0.7 0.5 0.2 1.5c0.1 0.1 0.3 0.4 0.4 0.6 0.2 0.3 0.4 0.4 0.9 0.2 0.8-0.4 1.1-0.3 1.7 0.5 0.6 0.8 0.6 0.9 0.3 1.5-0.4 0.7-0.4 0.8 0.6 1.5 1.1 0.8 1.2 0.8 1.7 0.1 0.2-0.4 0.3-0.4 0.9 0 0.2 0.1 0.5 0.2 0.7 0.3 0.4 0.1 0.9 0.4 0.9 0.5 0.1 0.1-0.2 1-0.3 1.1-0.3 0.4-0.2 0.8 0.4 1 1.8 0.6 2.3 0.5 2.4-0.5q0.1-0.8 0.4-0.3c0.2 0.3 0.2 0.3-0.1 0.7-0.1 0.2-0.3 0.6-0.4 0.8-0.2 0.4-0.4 0.5-1 0.4-0.7 0-0.8 0-0.9 0.7q-0.3 1 0.3 1c0.6 0 0.9 0.3 0.9 0.6 0 1-0.2 1.2-1 1.2-0.6 0-0.7 0.2-0.6 1.1 0.2 0.9 0.2 0.9 1.1 0.9 1 0 1 0 1.2 0.7 0.2 0.6 0 1-0.3 1-0.1 0-0.5 0.4-0.5 0.6 0 1 1.2 1.7 1.9 1.1 0.5-0.3 0.6-0.3 1 0.1 0.4 0.3 0.4 0.4 0.3 0.6-0.2 0.6-0.2 0.6-0.6 0.6-0.8 0-1.5 0.4-1.9 1l-0.2 0.3-0.5-0.1c-0.6 0-0.9 0.1-1 0.5-0.2 0.7-1.1 0.3-1.2-0.4v-0.5h-0.7c-0.9-0.1-1 0-1 0.7 0 0.4-0.1 0.5-0.5 0.6-0.3 0.1-0.4 0-0.6-0.4-0.1-0.3-0.3-0.4-0.4-0.4-0.1 0-0.1 0-0.6 0.1-0.7 0.2-0.7 0.2-0.7 0 0-0.4 0.3-0.8 0.7-0.9 0.5-0.2 0.6-1 0.2-1.3-0.3-0.2-0.3-1.1 0-1.5 0.1-0.1 0.2-0.3 0.2-0.4 0-0.1-0.1-0.3-0.1-0.5q-0.1-0.4-0.3-0.4c-0.1-0.1-0.3-0.2-0.5-0.2-0.1-0.1-0.2-0.2-0.2-0.3 0 0-0.2-0.3-0.3-0.4-0.2-0.2-0.3-0.4-0.3-0.7 0-0.5-0.6-0.9-1-0.6-0.3 0.3-0.9 0.1-0.9-0.4 0-0.1-0.1-0.3-0.2-0.4-0.2-0.2-0.1-0.2-1.8 0-1 0.1-2.2 0.4-2.5 0.5-0.1 0.1-0.5 0.2-0.9 0.4-0.4 0.1-0.8 0.3-1 0.4-0.3 0.2-0.5 0.3-0.6 0.3-0.2 0.1-0.2 0.1-0.2 0.8 0.1 1.7 0.1 1.8 0.6 3.4 0.6 1.8 2 3.6 3.6 4.3 1 0.5 1 0.6 0.3 0.7-1.1 0.2-2.9-0.5-3.7-1.4-0.3-0.3-1.2-1.5-1.2-1.5 0-0.1-0.1-0.3-0.3-0.5-0.2-0.3-0.5-0.8-0.8-1.2-0.8-1.4-2-2.9-2.3-2.9-0.1 0-0.5-0.2-0.9-0.4-1.6-0.8-2.2-0.8-2.3-0.3-0.1 0.2 0 0.4 0.3 0.7 0.2 0.2 0.6 0.6 0.8 0.9 0.6 0.8 0.7 0.9 1.3 1.4 0.6 0.6 1.5 1.8 1.7 2.3 0.1 0.2 0.3 0.4 0.3 0.4 0.1 0 0.1 0.1 0.1 0.2 0 0.2 0.2 0.6 0.7 1.4 0.2 0.4 0.4 0.9 0.6 1.6 0.2 0.8 0.4 1.4 0.6 2.1 0.2 0.5 0.3 0.9 0.4 1.1 0.1 0.4 0.2 0.8 0.5 1.6 0.2 0.3 0.3 0.8 0.4 1 0.1 0.3 0.2 0.7 0.4 1 0.1 0.4 0.3 0.7 0.3 0.9 0 0.1 0.1 0.2 0.1 0.2 0.1 0.1 0.1 0.2 0.1 0.3 0 0.3 0.6 1.4 1.3 2.3 0.8 0.9 2.6 1.6 3 1.1 0.3-0.3 0-0.6-0.4-0.6-0.7 0-2.2-1-2.5-1.7-0.1-0.1-0.2-0.4-0.3-0.6-0.2-0.1-0.3-0.4-0.3-0.5 0-0.2-0.2-0.5-0.3-0.8-0.1-0.2-0.2-0.6-0.3-0.7 0-0.2-0.1-0.5-0.2-0.8-0.1-0.2-0.3-0.6-0.4-0.7 0-0.2-0.2-0.8-0.4-1.2-0.2-0.5-0.3-1-0.4-1.2 0-0.2-0.1-0.4-0.1-0.6-0.1-0.1-0.2-0.5-0.3-0.9-0.1-0.4-0.3-0.7-0.3-0.8 0-0.1-0.1-0.5-0.2-0.8-0.1-0.3-0.3-0.7-0.4-0.9-0.1-0.2-0.1-0.5-0.1-0.6 0-0.1-0.1-0.3-0.3-0.4-0.1-0.2-0.2-0.3-0.2-0.4 0-0.1-0.7-1.6-0.8-1.6-0.1 0-0.1-0.1-0.1-0.2-0.1-0.1-0.3-0.4-0.6-0.7-0.2-0.3-0.6-0.8-0.8-1-0.2-0.3-0.5-0.5-0.6-0.7-0.5-0.4-1.2-1.3-1.2-1.4 0-0.1 0.3-0.1 0.4 0 0 0.1 0.3 0.2 0.6 0.4 0.5 0.2 1 0.8 1.7 1.8 0.1 0.1 0.3 0.3 0.3 0.3 0 0.1 0.2 0.4 0.4 0.7 0.2 0.3 0.5 0.8 0.7 1.2 0.3 0.3 0.5 0.6 0.5 0.7 0 0 0.3 0.5 0.8 1.1 1.6 1.9 5.2 2.8 5.8 1.4 0.2-0.7 1.8-0.3 1.8 0.4 0 0.2-0.6 0.5-0.8 0.4-0.5-0.2-0.6-0.1-0.9 0.6-0.3 1-0.3 1 0.1 1.3 0.4 0.2 0.2 0.8-0.3 0.8-0.3 0-0.1 0.4 0.2 0.6 0.6 0.3 0.7 0.2 1.1-0.8 0.2-0.7 0.2-0.8-0.3-1-0.3-0.2-0.3-0.3-0.1-0.5 0.2-0.2 0.2-0.3 0.5-0.2 0.5 0.1 0.6 0.1 0.7-0.2 0-0.1 0.2-0.3 0.3-0.5 0.2-0.3 0.3-0.4 0.3-0.6-0.1-0.1-0.1-0.3-0.2-0.4 0-0.4 0.4-0.5 0.7-0.2 0.2 0.3 0.4 0.3 0.8-0.1 0.1-0.2 0.4-0.4 0.6-0.4 0.5-0.1 0.7-0.6 0.4-1-0.2-0.1-0.1-0.4 0.1-0.4 0.1 0 0.3 0.2 0.4 0.4 0.3 0.4 0.3 0.4 1.1 0.3 0.2 0 0.5-0.1 0.6-0.1 0.3-0.1 0.5-0.3 0.4-0.9 0-0.5 0.3-0.4 0.5 0 0.1 0.5 0.2 0.5 0.9 0.8 1 0.3 1.4 0.2 1.5-0.4 0.2-0.5 0.5-0.4 0.5 0.2 0 0.5 0 0.5 0.3 0.6 0.1 0.1 0.4 0.2 0.7 0.4 0.6 0.4 0.8 0.4 1.1 0.1 0.2-0.2 0.3-0.2 0.4-0.1 0.2 0.1 0.3 0.5 0.1 0.6-0.3 0.2-0.2 0.5 0.3 0.9 0.3 0.3 0.6 0.6 0.7 0.8 0.2 0.5 0.3 0.5 0.8 0.3 0.4-0.1 0.4 0 0 0.4q-0.3 0.3-0.2 0.4c0 0.1 0.1 0.4 0.1 0.7 0.2 0.6 0.2 0.7 0.8 0.8 0.6 0.1 0.7 0.2 0.6 0.6 0 0.2-0.1 0.2-0.3 0.2-0.7 0-0.9 1.8-0.2 2 0.4 0.1 0.4 0.1 0.3 0.4q-0.1 0.2-0.4 0.2c-0.4 0-0.5 0.1-0.6 0.5 0 0.2-0.1 0.4-0.1 0.6-0.1 0.2-0.1 0.3 0.1 0.6 0.3 0.5 0.2 0.8-0.2 0.5-0.3-0.3-1-0.3-1.1 0.1-0.1 0.1-0.2 0.4-0.3 0.6q-0.4 0.8-0.1 1.2c0.2 0.2 0.2 0.6 0 0.6-0.1 0-0.2-0.2-0.4-0.4-0.3-0.4-1.3-0.3-1.3 0.1q0 0.1-0.2 0.1c-0.1 0-0.1 0.1 0 0.7 0 1.1-0.5 1.5-0.7 0.6-0.1-0.4-0.4-0.5-1.1-0.3-0.2 0-0.4 0.1-0.6 0.1-0.2 0.1-0.2 0.1-0.3 0.5 0 0.5-0.4 0.5-0.5 0 0-0.4-0.6-0.7-1.3-0.7-0.4-0.1-0.4 0-0.6 0.6-0.3 0.6-0.8 0.4-0.7-0.3v-0.4l-0.7-0.4c-0.8-0.4-0.8-0.4-1.1-0.1-0.5 0.5-0.8 0.3-0.5-0.2 0.2-0.2 0.1-0.7-0.1-0.7 0 0-0.2-0.2-0.5-0.5-0.3-0.5-0.8-0.7-1-0.4-0.1 0.2-0.3 0.1-0.5-0.2-0.1-0.3-0.1-0.4 0-0.5 0.3-0.6 0-1.5-0.7-1.5-0.6 0-0.8 0.5-0.2 0.7q0.4 0.2 0 0.5c-0.2 0.1-0.2 0.1-0.3-0.2-0.1-0.1-0.2-0.2-0.2-0.2-0.1 0-0.3-0.3-0.5-0.5-0.3-0.4-0.3-0.5-0.7-0.5-0.4 0-0.8-0.6-1-1.9-0.1-0.6-0.8-1-1.1-0.7-0.2 0.3-0.1 2.1 0.1 2.8 0.3 1.1 1.2 2.4 1.6 2.4 0 0 0.2 0.1 0.4 0.2 0.6 0.4 1.3 0.3 1.3-0.1 0-0.2-0.1-0.3-0.5-0.4-0.4-0.1-1-0.5-1-0.7 0-0.2 0.5-0.2 0.8-0.1 0.1 0.1 0.4 0.2 0.5 0.2 0.2-0.1 1 0.9 1 1.2 0 0.2 0.6 0.5 1.1 0.5q0.8 0 0.5 0.7c-0.2 0.5-0.1 0.7 0.5 1.1 0.7 0.4 0.8 0.4 1.1 0 0.5-0.5 0.9-0.2 0.8 0.4-0.1 0.2 0.2 0.4 1 0.8 0.7 0.3 0.9 0.3 1.1-0.3 0.2-0.7 0.8-0.7 0.8-0.1 0 0.5 0.2 0.6 0.9 0.6 0.8 0 0.9-0.1 0.9-0.5 0-0.6 0.6-0.7 0.8-0.2q0.4 1 0.6 1.2c0.3 0.3 0 0.5-0.4 0.4-0.3-0.1-0.5-0.1-0.5 0.1 0 0-0.3 0.3-0.6 0.6-0.6 0.6-0.6 0.7-0.3 1.1 0.4 0.5 0.2 0.7-0.4 0.4-0.4-0.3-0.5-0.3-1.1 0.2-0.2 0.1-0.4 0.2-0.5 0.2-0.4 0-0.5 0.3-0.4 0.7 0.2 0.7-0.2 1-0.5 0.4-0.2-0.7-0.2-0.8-0.5-0.8-0.2 0-0.5 0.1-0.6 0.2-0.2 0.1-0.5 0.2-0.6 0.2-0.3 0-0.6 0.3-0.7 0.7 0 0.3 0 0.4-0.2 0.4-0.2 0-0.3-0.1-0.2-0.4 0-0.9-1.6-1.5-1.9-0.7-0.2 0.3-0.4 0.3-0.9 0.1-3.5-1.4-5.1-3.1-6.4-6.7-0.1-0.1-0.2-0.3-0.2-0.3-0.1 0-0.4-0.1-0.7-0.1-0.8-0.2-1.6-0.6-2.9-1.4-2-1.4-2.6-1.9-3.9-3.5-0.3-0.4-0.7-0.9-0.9-1.1-0.1-0.3-0.3-0.5-0.3-0.6 0 0 0-0.1-0.1-0.1-0.1-0.1-0.5-0.7-1-1.4-1.4-2-3-3.5-3.4-2.9-0.1 0.1-0.3 1.6-0.3 2.2 0 0.3-0.1 0.5-0.1 0.5-0.2 0.1-2-2.4-2.6-3.5-0.2-0.2-0.4-0.6-0.5-0.7-0.2-0.2-0.4-0.6-0.6-0.8-0.1-0.3-0.6-1-0.9-1.5-0.4-0.5-0.8-1.2-1-1.5-0.2-0.4-0.6-1-1-1.6-0.4-0.5-0.9-1.3-1.1-1.7-0.3-0.5-0.6-0.9-0.7-1.1-0.1-0.2-0.2-0.3-0.3-0.4-0.3-0.6-1.2-1.8-1.5-2.1-0.2-0.2-0.5-0.6-0.7-1-0.8-1.4-1.8-3.1-2.1-3.4-0.1-0.1-0.4-0.5-0.5-0.7-0.1-0.3-0.4-0.7-0.5-1-0.2-0.2-0.4-0.6-0.5-0.8q-0.4-0.8-0.8-1.4c-0.2-0.2-0.5-0.7-0.7-1.1-0.1-0.4-0.5-1-0.8-1.4-0.5-0.8-0.6-1.1-0.4-1.4 0.2-0.1 0.6-0.7 0.9-1.2 0.1-0.1 0.3-0.4 0.4-0.6 0.1-0.1 0.3-0.3 0.3-0.4 0-0.1 0.1-0.3 0.3-0.5 0.4-0.3 1.2-1.6 1.6-2.5 0.1-0.1 0.3-0.5 0.4-0.7 0.2-0.2 0.3-0.5 0.4-0.7 0.1-0.2 0.4-0.6 0.7-1 0.2-0.4 0.5-0.9 0.7-1.2 0.1-0.3 0.3-0.6 0.4-0.8 0.1-0.2 0.2-0.3 0.2-0.4 0-0.1 0.2-0.4 0.3-0.8 0.5-1 0.5-1.2 0.1-1.5-0.2-0.3-1.3-0.7-2-0.8-0.2-0.1-0.3-0.5-0.1-1.4q0.4-2.1 1.8-3.8c0.3-0.3 0.6-0.7 0.7-0.9l0.2-0.3-0.2-0.6c-0.2-0.8-0.3-5 0-5.8 0.1-0.3 0.1-0.7 0.1-0.9 0-0.2 0.1-0.6 0.2-0.9 0-0.2 0.1-0.6 0.1-0.8 0-0.5 0.7-3.7 0.9-4.4 0.1-0.2 0.2-0.5 0.2-0.7 0.1-0.5 1.9-4.3 2.5-5.1 0-0.1 0.2-0.5 0.4-0.8 0.9-1.7 3.1-4.7 3.4-4.7 0.1 0 0.4 0.3 0.7 0.5zm53 0.3c0.1 0 0.2 0.1 0.3 0.3 0.2 0.4 0.7 0.5 0.9 0.2 0.2-0.2 0.3-0.2 0.4 0q0.1 0.2 0 0.3-0.1 0.1 0 0.2c0.1 0.1 0.2 0.3 0.2 0.5 0.2 0.4 0.2 0.4 0.4 0.4 0.4 0 0.5 0.2 0.2 0.4-0.2 0.1-0.1 1 0.1 1.4 0.2 0.3 0 0.6-0.4 0.6l-0.2-0.1v-0.5c0.1-2.6-1.8-3.6-3.5-1.9-0.4 0.3-0.7 0.7-0.7 0.7-0.1 0.2-0.3 0.1-0.3-0.2 0-0.1 0.1-0.3 0.2-0.3 0.1-0.2 0.1-0.5 0-0.8-0.3-0.4 0.2-0.8 0.6-0.5 0.4 0.4 1.1 0.1 1.2-0.4 0.1-0.4 0.4-0.5 0.6-0.3zm0.5 1.6c0.5 0.2 0.7 0.4 0.7 0.8 0 0.3-0.2 0.3-0.2 0-0.2-0.4-0.6-0.8-1-0.8-0.2 0-0.3-0.3-0.1-0.3 0.1 0 0.3 0.1 0.6 0.3zm-0.3 0.6c0.6 0.5 0.7 1.8 0.1 1.4-0.4-0.3-0.9-0.5-1.2-0.5-0.4 0-0.4 0-0.4-0.3 0.1-0.6 1-0.9 1.5-0.6zm-1.9 0.9c0.2 0.4 0.2 0.4 0 0.4-0.3 0-0.4-0.2-0.3-0.5 0.1-0.3 0.2-0.2 0.3 0.1zm-1.2 0.1q-0.1 0.6 0.5 0.6c0.1 0 0.4 0.1 0.5 0.1 0.3 0.3 0.6 0.2 0.9-0.1 0.4-0.5 1.2-0.2 0.9 0.3-0.2 0.4-0.1 0.6 0.1 0.9 0.2 0.1 0.3 0.3 0.3 0.4 0 0.3 0.7 0.7 1 0.5 0.3-0.2 0.5-0.2 0.5 0 0.2 0.3 0.1 0.4-0.2 0.8-0.4 0.3-0.4 0.3-0.4 1 0 0.6 0 0.7 0.6 0.9 0.7 0.2 0.6 1-0.1 0.8-0.4-0.2-0.5-0.1-0.8 0.6-0.2 0.3-0.4 0.5-0.5 0.6-0.3 0.2-0.3 0.3 0 0.7 0.3 0.5 0 0.8-0.5 0.5-0.1 0-0.4 0-1 0.2-0.9 0.3-0.9 0.4-1 0.8q-0.1 0.8-0.6 0c-0.3-0.7-0.5-0.7-0.8-0.6-0.2 0.1-0.5 0.1-0.6 0.1q-0.4 0-0.6 0.2l-0.3 0.2-0.2-0.2q-0.2-0.2-0.2-0.5 0-0.6-0.2-0.6c-0.1 0-0.4-0.2-0.6-0.3q-0.5-0.4-0.8-0.3c-0.3 0-0.4-0.1-0.3-1.2 0.2-1.8 0.1-2-0.7-2.2-0.3 0-0.3-0.3-0.1-0.7 0.2-0.2 0.3-0.2 0.6-0.1 0.5 0.1 0.6 0 0.7-0.3 0-0.2 0.1-0.4 0.3-0.6q0.4-0.6-0.1-0.9c-0.3-0.2-0.3-0.4-0.1-0.6q0.4-0.4 0.8-0.1c0.4 0.4 1.9-0.1 1.9-0.7 0-0.4 0.1-0.5 0.6-0.5 0.5 0 0.5 0.1 0.5 0.3zm4.2 0.6c-0.1 0.2-0.3 0.5-0.4 0.7-0.1 0.1-0.2 0.3-0.2 0.3q-0.1 0-0.2 0c-0.3-0.1-0.2-0.4 0.2-0.7 0.2-0.2 0.4-0.4 0.5-0.6 0.1-0.2 0.1-0.2 0.2-0.1q0 0.1-0.1 0.4zm-54.9-0.2c0 0-0.2 0.3-0.4 0.6-0.1 0.3-0.5 0.7-0.7 1-0.5 0.7-1.6 2.5-1.8 3-0.1 0.3-0.2 0.5-0.2 0.6-0.1 0.2-0.3 0.8-0.4 1.4 0 0.3-0.2 0.8-0.3 1.2-0.2 1.1-0.5 2.6-0.6 3.8 0 0.7-0.1 1.7-0.2 2.3-0.1 1-0.1 1.1 0 1.3 0.3 0.2 0.7-0.1 0.7-0.5 0-0.2 0-0.7 0.1-1.1 0.2-0.3 0.3-0.9 0.3-1.1 0.1-0.3 0.2-0.7 0.3-1 0.1-0.3 0.2-0.7 0.3-0.8 0-0.2 0.1-0.6 0.3-0.9 0.1-0.4 0.3-0.8 0.3-0.9 0.1-0.4 1-2.1 1.2-2.3 0.1-0.1 0.2-0.2 0.2-0.3 0-0.1 0.8-1.8 1-1.9 0.1-0.2 1.3 1.7 1.3 2.1 0 0 0 0.3 0.1 0.5 0.2 0.4 0.5 1.4 0.6 2 0.1 0.2-0.1 0.6-0.5 1.5-0.4 0.8-0.8 1.6-0.8 1.9-0.1 0.3-0.3 0.8-0.4 1.2-0.7 2-1 4.9-0.7 5.5 0.2 0.2 0.5 0.1 0.8-0.3 0.5-0.5 0.8-0.4 0.5 0.1-0.4 0.7-0.4 3.3 0 3.6 0.2 0.3 0.6 0.1 0.9-0.4 0.4-0.9 2-3 2.9-4 0.4-0.4 1-1.1 1.4-1.5 0.4-0.4 0.8-0.9 1-1 1.4-1 1.5-1.6 0.3-1.3-1.4 0.4-1.7 0.3-1.1-0.4 0.5-0.5 0.5-0.6 0-1.6-0.2-0.5-0.4-1.1-0.5-1.4-0.1-0.3-0.2-0.7-0.3-0.9-0.1-0.2-0.1-0.4-0.1-0.5 0-0.2-0.1-0.5-0.2-0.8-0.1-0.3-0.3-0.8-0.4-1.1 0-0.3-0.2-0.9-0.4-1.2-0.1-0.4-0.3-0.9-0.4-1.1-0.2-0.6-0.6-1.5-1.1-2.1-0.2-0.3-0.4-0.8-0.6-1-0.2-0.5-1.9-2.4-2.2-2.4 0 0-0.1 0.1-0.2 0.2zm1.2 1.8c0.3 0.3 0.5 0.6 0.6 0.8 0.1 0.1 0.3 0.5 0.6 0.9 0.3 0.4 0.5 0.9 0.6 1.1 0.1 0.2 0.2 0.5 0.3 0.6 0.2 0.3 0.8 2 0.9 2.5 0.1 0.3 0.3 0.8 0.4 1.1 0.1 0.4 0.2 0.8 0.2 0.9 0 0.1 0.1 0.6 0.3 1 0.1 0.4 0.3 0.9 0.3 0.9 0 0.1 0.1 0.4 0.2 0.7 0.3 0.5 0.4 1.2 0.2 1.2 0 0-0.1 0.2-0.3 0.4-0.1 0.2-0.3 0.5-0.4 0.7-0.5 0.6-0.2 1 0.5 0.8 0.8-0.2 0.8-0.2 0.8-0.1 0 0.2-0.3 0.5-2 2.3q-1.3 1.3-2.7 3.5-0.3 0.6-0.3-0.3c0-0.6 0-0.8 0.4-2.3 0.3-1.2 0-1.5-0.9-0.9-0.6 0.4-0.7 0.3-0.6-0.4 0.1-1.1 0.8-4.1 1.2-5 0.1-0.2 0.4-0.8 0.6-1.3 0.2-0.5 0.5-1 0.6-1.2 0.3-0.3 0.3-0.8 0-1.4-0.1-0.2-0.2-0.5-0.2-0.6 0-0.1-0.1-0.4-0.2-0.7-0.2-0.4-0.3-0.7-0.3-0.8 0-0.1-0.2-0.6-0.4-1-0.8-1.5-1-1.9-1-2 0-0.5-0.6-0.4-0.9 0.1-0.1 0.3-0.3 0.6-0.4 0.8-0.1 0.2-0.2 0.4-0.2 0.4 0 0.1-0.1 0.3-0.2 0.4-0.1 0.2-0.2 0.5-0.4 0.7-0.1 0.3-0.3 0.7-0.5 1-0.2 0.3-0.4 0.6-0.4 0.8-0.1 0.1-0.2 0.4-0.3 0.5-0.1 0.1-0.2 0.4-0.2 0.7-0.1 0.3-0.2 0.6-0.3 0.7 0 0.1-0.1 0.3-0.1 0.4q0 0.1-0.1-0.2c0-0.2 0-0.6 0.2-1.4 0.5-2.1 0.9-3.3 1.3-3.9 0.2-0.4 0.4-0.8 0.5-1 0.1-0.2 0.4-0.7 0.7-1 0.3-0.4 0.5-0.7 0.5-0.7 0 0 0.1-0.2 0.2-0.3l0.3-0.3 0.2 0.2c0.2 0.1 0.5 0.4 0.7 0.7zm48.9-0.6c-0.2 0.1-0.7 0.1-1 0.2-1.4 0.2-2.5 2.4-1.9 3.9 0.5 1.7 2.5 3 4 2.7 0.7-0.1 2.1-1.2 2.3-1.8 0.3-0.8 0.3-3 0-3.2-0.1 0-0.1-0.1-0.1-0.2 0-0.8-2.2-1.8-3.3-1.6zm4.9 0.2c0 0.2-0.3 0.5-0.5 0.4-0.2 0-0.2-0.3-0.1-0.4 0.2-0.1 0.6-0.1 0.6 0zm-3.1 0.5c1.2 0.7 1.5 1.3 1.3 2.8-0.3 3.3-3.9 3.9-5.4 0.9-0.8-1.5 0.3-3.8 1.7-3.8 0.1 0 0.2-0.1 0.2-0.1 0.2-0.3 1.7-0.1 2.2 0.2zm-2.4 0.3c-0.3 0.1-0.7 0.6-0.9 1-0.5 1.1-0.5 1.1-0.2 2 0.3 0.8 1.5 1.6 2.4 1.6 1.9 0 2.5-2.7 1-4.2l-0.6-0.6h-0.7c-0.4 0-0.8 0.1-1 0.2zm1.4 0.3c1.7 0.5 1.6 3.8-0.1 3.8-0.2 0-0.3 0-0.4-0.1 0 0-0.1-0.1-0.2-0.1-0.7 0-1.9-1.7-1.5-2 0.1 0 0.2-0.2 0.2-0.3 0.1-0.4 0.9-1.3 1.2-1.3 0.3-0.1 0.6-0.1 0.8 0zm7.9 0.9c0 0 0.1 0.2 0.1 0.4q0 0.7-0.6 0.2c-0.1-0.1-0.3-0.2-0.4-0.2-0.5 0-0.7-0.4-0.3-0.8l0.2-0.2 0.5 0.2c0.2 0.2 0.5 0.3 0.5 0.4zm-1.8 0.7c0.8 0.4 1 0.5 1.5 1.1 1.2 1.6 1.5 4 0.5 5l-0.2 0.2-0.3-0.2c-0.2-0.1-0.4-0.3-0.6-0.5l-0.3-0.3 0.2-0.3c0.6-1.2 0.1-3.2-1-3.6q-0.2-0.1-0.2-0.3c0-0.1-0.6-0.7-0.8-0.7-0.2 0-0.4-0.3-0.3-0.5 0.1-0.2 0.7-0.2 1.5 0.1zm2.9 0.9c0.9 0.2 1.3 1.1 0.5 1.5l-0.3 0.3-0.1-0.3c0-0.3-0.3-1-0.5-1.2-0.2-0.2-0.3-0.4-0.2-0.4 0.1 0 0.3 0 0.6 0.1zm-3.3 1.2c0.5 0.2 0.7 0.8 0.7 1.5 0 1.7-0.3 2-1.2 1.6-0.4-0.2-0.7-0.4-0.8-0.4-0.4-0.2-0.7-1.4-0.4-1.9 0.2-0.5 0.3-0.6 0.7-0.5 0.3 0 0.4 0 0.5-0.2 0.2-0.3 0.2-0.3 0.5-0.1zm-13 0.1c0.2 0.1 0.6 0.2 0.8 0.2 0.1 0.1 0.5 0.1 0.8 0.1h0.5l-0.1 0.5c-0.1 0.6 0.1 1 0.3 1 0.5 0 1.9 0.9 2.4 1.6 0.3 0.5 0.4 0.5 1.3 0 0.4-0.2 0.7-0.4 0.7-0.4 0.1 0 0.1 0.2 0.2 0.5 0.3 0.7 0.6 1.3 1.1 1.9 0.5 0.5 0.5 0.6 0 0.9l-0.3 0.2v1.3c0.1 2 0.3 2.9 0.8 3 0.8 0.2 0.9 0.3 0.6 1.2-0.1 0.4-0.2 0.8-0.2 0.9 0 0.3-0.1 0.6-0.2 1.4-0.1 0.2-0.4 0.2-0.7 0-0.4-0.3-0.8-0.1-0.8 0.4 0 0.4-0.9 1.6-1.6 2.2-0.2 0.1-0.2 0.3-0.2 0.7 0.1 0.8-0.1 0.8-0.7 0-0.5-0.7-0.5-0.8 0-1.3 0.5-0.5 0.5-0.6 0.2-1-0.4-0.4-0.4-0.5 0.1-1 0.6-0.7 1.3-2.3 1.4-3.1 0-0.5 0-1-0.4-2.3-0.3-1-0.4-1.3-1.1-2.3-0.3-0.4-0.5-0.7-0.5-0.8-0.6-1.1-3.1-2.6-4.3-2.6-0.2 0-0.5 0-0.6-0.1-0.4-0.2-2.2-0.1-3 0.1-1.8 0.6-3.2 1.7-4.6 3.4-0.2 0.3-1.1 2-1.3 2.5-0.2 0.6-0.3 0.2-0.4-1.6l-0.1-1.1 0.5-0.7c0.7-1 0.8-1.2 1.1-1.5 0.3-0.3 0.4-1 0.2-1.2-0.4-0.2 0-0.6 0.6-0.8 0.2-0.1 0.6-0.4 1.1-0.9 0.9-0.8 1-0.8 1.3-0.1 0.3 0.5 0.5 0.5 1.3 0.4 0.3-0.1 1-0.1 1.4-0.1 0.9 0 1.2-0.2 1.2-0.9 0.1-0.9 0.1-0.9 1.2-0.6zm17.7 2.2c0 0-0.1 0.3-0.2 0.5-0.1 0.3-0.2 0.5-0.2 0.6 0 0.2-0.3 0.4-0.6 0.4-0.2 0-0.2 0-0.2-0.3 0-0.1 0.1-0.6 0.1-1.1 0-0.5 0.1-1 0.1-1.1 0-0.1 1 0.8 1 1zm-8 0.5c0.3 0.1 0.4 0.1 0.6 0.1 0.2-0.2 0.3-0.1 0.7 0.2 0.2 0.2 0.4 0.3 0.5 0.3 0.1 0 0.2 0.1 0.3 0.1 0 0.1 0.1 0.1 0.2 0.1 0.1 0 0.3 0.1 0.5 0.3 0.5 0.4 0.6 0.4 0.9 0.2 0.4-0.3 1.2 0.6 0.9 0.9-0.1 0.3-0.1 0.4 0 0.7 0 0.2 0.1 0.7 0 1.1 0 0.7 0 0.9 0.3 0.9 0.2 0 0.4 0.3 0.2 0.6-0.1 0.1-0.2 0.3-0.2 0.5 0 0.5-0.1 0.6-0.6 0.6h-0.5l-0.3 0.3q-0.3 0.6-1 0.8c-0.4 0.1-0.5 0.3-0.4 0.6 0.1 1-1.2 0.8-1.7-0.2-0.1-0.1-0.3-0.2-0.6-0.3-0.2-0.1-0.5-0.3-0.6-0.3l-0.2-0.2 0.4-0.2c0.4-0.2 0.5-0.5 0.5-1v-0.4l0.4 0.1c0.3 0.1 0.4 0.2 0.2 0.7-0.5 1.1 1 1.8 1.7 0.8 0.3-0.4 0.2-0.8-0.3-1.4l-0.3-0.4 0.2-0.3c0.7-1 0-2.2-1.3-2.1-0.7 0-0.7 0-1.2-0.5-0.7-0.6-0.9-0.9-0.5-1.2 0.9-0.8 1-0.9 0.8-1.1q-0.3-0.6 0.4-0.3zm0.2 0.9c-0.5 0.1-0.8 1-0.3 1.5q0.6 0.8 1.4 0.1c0.7-0.6-0.1-1.8-1.1-1.6zm-10.2 0.2c2.6 0.3 5.3 3.1 5.8 6 0.1 0.3 0.2 0.7 0.2 0.9 0.2 0.7-0.4 2-1.5 3.3l-0.3 0.4-0.4-0.2c-0.5-0.2-0.7-0.1-1.1 0.6-0.2 0.4-0.4 0.4-0.8 0-0.2-0.1-0.6-0.3-0.8-0.4-0.8-0.3-0.8-0.4-0.5-1.2 0.2-0.6 0.2-0.8 0.1-1-0.1-0.2-0.1-0.2 0.1-0.3q0.1-0.1 0.1 0c0 0.3 0.3 0.5 0.5 0.4 1.3-0.7 0.8-3.7-0.7-4.8-2.1-1.5-5.7 0.1-5.7 2.6 0 0.5-0.1 0.6-0.7 0.5-0.9 0-1 0.2-1.1 1.2-0.1 0.4-0.2 0.8-0.2 0.8-0.1 0.1-1.4 0.2-1.5 0.1-0.3-0.4-0.4-1.6-0.1-2.5 0.3-1.1 0.3-1.2 0.4-1.4 0.1-0.1 0.3-0.4 0.4-0.6 0.4-1 1.7-2.6 2.5-3.1 1.5-0.9 2.3-1.2 3.5-1.3 0.5-0.1 0.9-0.1 1-0.1 0 0 0.4 0 0.8 0.1zm10.9 0.5c0.2 0.2 0 0.7-0.3 0.7-0.5 0-0.6-0.6-0.2-0.8 0.3-0.1 0.3-0.1 0.5 0.1zm1.6 0.2c-0.3 0.2-0.5 0.7-0.4 1.1 0.1 0.6 1.1 1 1.5 0.7 0.6-0.4 0.5-1.6-0.2-1.7-0.1-0.1-0.4-0.1-0.5-0.1-0.1-0.1-0.3 0-0.4 0zm4.1 0.2c0.4 0.8-0.2 1.8-1.1 1.5-0.4-0.2-0.2-0.8 0.4-1.5 0.3-0.2 0.6-0.3 0.7 0zm-3.1 0.7c0 0.2-0.2 0.4-0.5 0.4-0.3 0-0.5-0.3-0.3-0.5 0.2-0.2 0.7-0.2 0.8 0.1zm-31.4-0.1c0 0-0.2 0-0.5 0.1-1.5 0.1-2.9 1.3-3.2 2.7-0.7 3.1 0.7 5.5 3.7 6.5 1.9 0.6 4.6-0.6 5.5-2.5l0.3-0.8v-1.1c0-1.1 0-1.2-0.2-1.8-0.1-0.3-0.3-0.6-0.3-0.8-0.1-0.5-1.6-1.6-2.5-1.8-0.1-0.1-0.5-0.2-0.7-0.3-0.4-0.1-2-0.3-2.1-0.2zm1.7 0.8c1.3 0.3 3 1.4 3 2 0 0 0.1 0.2 0.1 0.2 0.5 0.6 0.5 2.5-0.1 3.6-0.6 1-2.5 2.2-3.5 2.2-1.2 0-2.9-1-3.6-2-0.5-0.7-0.6-0.9-0.6-1.8-0.4-3.2 1.5-4.9 4.7-4.2zm27.5 0.5c0.5 0.6-0.3 1.6-0.9 1.3-0.2-0.1-0.5-0.7-0.5-1 0-0.4 1.1-0.7 1.4-0.3zm-1.8 1.2c0.1 0.2 0.1 0.2-0.3 0.1-0.7-0.1-0.8-0.6-0.2-1.1l0.3-0.3 0.1 0.5c0 0.3 0.1 0.7 0.1 0.8zm3.4-0.6c-0.5 0.3-0.5 1.3 0 1.6 1 0.6 2-0.7 1.2-1.5-0.2-0.1-0.4-0.2-0.4-0.2-0.1 0-0.3-0.1-0.4-0.1-0.1 0-0.3 0.1-0.4 0.2zm-13.5 0.5q0.2 0.1-0.7 0.1-0.9 0-0.7-0.1c0 0 0.4-0.1 0.7-0.1 0.3 0 0.6 0.1 0.7 0.1zm14.3 0.1c0.2 0.3-0.1 0.6-0.4 0.5-0.2-0.1-0.2-0.5-0.1-0.6 0.1-0.2 0.5-0.1 0.5 0.1zm-15.9 0.2c0 0-0.1 0.1-0.2 0.1-0.1 0-0.2-0.1-0.2-0.1 0-0.1 0.1-0.1 0.2-0.1q0.3 0 0.2 0.1zm11.4 0.6c0.3 0.3 0.2 0.6-0.1 0.7q-0.5 0.1-0.5-0.6c0-0.4 0.4-0.5 0.6-0.1zm-9.8 0c1 0.5 1.4 1.7 0.9 2.6-0.3 0.5-0.5 0.5-1 0.2-0.5-0.3-0.9-0.1-1.1 0.7-0.2 0.6-1.2 0.1-1.6-0.8-0.7-1.4 1.3-3.3 2.8-2.7zm1.5 0.2c0 0.1 0 0.1-0.1 0-0.2-0.1-0.2-0.3-0.1-0.3 0.1 0.1 0.1 0.2 0.2 0.3zm10.6 0.3c0.2 0.2 0.2 0.7 0 0.7-0.4 0.2-0.6-0.3-0.3-0.7 0.1-0.1 0.2-0.2 0.3 0zm-10.2 0.4c0.2 0.2 0.2 1.7 0 2q-0.4 0.4-0.3-0.3c0.1-0.2 0.1-0.8 0.1-1.3 0-0.5 0-0.8 0-0.7 0.1 0.1 0.1 0.2 0.2 0.3zm14.4 0.6c0 0 0.2 0 0.4-0.1 0.3-0.1 0.3 0.3 0 0.5-0.4 0.2-0.4 0.4-0.2 0.8 0.1 0.2 0.1 0.5 0.1 0.6 0 0.3 0.3 0.5 0.6 0.5 0.3 0 0.4 0.1 0.4 0.3q0.1 0.5-0.3 0.5c-0.3 0-0.5 0.1-0.6 0.7 0 0.2-0.1 0.5-0.2 0.7-0.1 0.3 0.1 0.6 0.4 0.8 0.5 0.1 0.2 0.6-0.4 0.6-0.2 0-0.3 0.1-0.7 0.6-0.4 0.6-0.5 0.6-0.6 0.1 0-0.3-0.1-0.5-0.2-0.6q-0.3-0.4-0.1-0.6c0.1-0.1 0.3-1.1 0.5-1.7 0.1-1-0.2-2.4-0.7-2.8-0.5-0.5 0-1 0.9-1 0.3 0.1 0.6 0.1 0.7 0.1zm-25.2 1c0 0.4 0.1 0.9 0.2 1.3 0.1 0.8-0.3 1.2-0.8 0.7-0.1-0.1-0.3-0.3-0.4-0.4-0.2-0.2-0.2-0.2 0-0.8 0.1-0.3 0.2-0.7 0.2-0.9 0-0.3 0.3-0.6 0.6-0.5 0.2 0 0.2 0.1 0.2 0.6zm23 0.2c0.6 0.8 0.8 2.9 0.3 3.3-0.1 0.1-0.1 0.1-0.2 0.1 0 0-0.1-0.2-0.1-0.3-0.5-0.9-1.1-1.3-1.7-1.1-0.3 0.1-0.4 0-0.5-0.5v-0.4l0.4-0.1c0.7-0.1 0.9-0.1 0.9-0.2 0-0.1 0.1-0.3 0.2-0.6 0.1-0.5 0.4-0.6 0.7-0.2zm-18.5 0c0.4 0.1 0.4 0.2 0.3 1.1-0.2 1-0.2 1.1 0.7 1.2 0.4 0 0.8 0.1 0.9 0.2 0.7 0.4 1.2 0.2 1.7-0.8 0.4-0.9 0.5-0.9 1-0.7 0.4 0.2 0.4 0.1 0.1 1.2-0.3 1-0.1 1.2 1.1 1.5 0.1 0.1 0.4 0.3 0.8 0.6 0.3 0.3 0.7 0.6 0.7 0.6 0.2 0 1-0.7 1-0.9 0-0.4 0.3-0.4 0.7-0.1 0.4 0.5 0.4 0.6 0 1.1-0.5 0.6-0.5 0.7 0.1 1.4 0.2 0.3 0.5 0.7 0.6 0.9 0.4 0.6 0.9 0.7 2 0 0.2-0.1 0.2 0 0.5 0.5 0.3 0.6 0.3 0.7-0.4 1-0.8 0.4-0.8 0.5-0.4 1.4 0.2 0.4 0.3 0.8 0.3 0.9 0 0.9 0.3 1.1 1.2 0.9 1.1-0.1 1-0.2 1.1 0.7 0 1 0 1-0.7 1.1-0.9 0.1-1 0.1-1 1.1 0 0.4 0 1 0 1.2-0.1 0.5 0.1 0.7 0.9 0.7 0.5 0.1 0.6 0.2 0.6 0.7 0 1.1-0.2 1.2-1.2 1.1-0.6-0.1-0.9 0-1 0.5-0.2 0.8-0.4 1.3-0.6 1.4-0.5 0.3-0.4 0.9 0.2 1.1 0.8 0.3 0.9 0.7 0.4 1.3q-0.6 0.6-1.1 0.2c-0.3-0.3-0.6-0.3-0.9 0.3-0.1 0.2-0.6 0.7-0.9 1.1-0.4 0.4-0.7 0.7-0.7 0.8 0 0.3 0.6 1.1 0.8 1.1 0.1 0 0.1 0.4-0.1 0.6-0.1 0.3-0.4 0.1-0.4-0.2q-0.1-0.1-0.1-0.1c-0.1 0-0.2-0.1-0.4-0.3-0.6-0.5-1.2-0.4-1.6 0.4-0.4 0.6-0.7 0.7-0.6 0.1 0-0.2 0.1-0.4 0.1-0.4 0.2-0.2 0.1-1.1-0.1-1.2-0.1 0-0.4-0.2-0.7-0.3-0.7-0.3-1.1 0-1.4 1.2-0.2 0.6-0.7 0.3-0.7-0.5 0-0.4-0.3-0.6-1-0.6-0.2 0-0.4-0.1-0.4-0.1 0-0.1 0.7-0.3 1.2-0.3 0.5 0 1.7-0.6 2.2-1.1 0.1-0.2 0.4-0.4 0.5-0.5 0.4-0.3 1.7-2 2.1-2.8 0.1-0.1 0.3-0.5 0.5-0.8 2.9-5.1 0.7-10.4-5.4-13.3-2.3-1.1-5.2-1-7.4 0.1-0.6 0.4-1.1 0.6-1.2 0.6 0 0-0.2 0.1-0.4 0.3-0.2 0.1-0.4 0.3-0.6 0.3-0.2 0.1-1.5 1.4-2.2 2.3-0.6 0.6-1.4 2.3-1.4 2.7 0 0.1-0.1 0.4-0.2 0.7-0.5 1.2-0.4 2.9 0 2.9 0.2 0 0.3 0 0.3-0.4 0-0.9 0-1.1 0.1-1.5 0.1-0.5 0.4-1.7 0.6-2 0.1-0.1 0.2-0.5 0.4-0.7 0.3-0.7 1.5-2.3 2.3-2.9 0.5-0.5 1.2-0.9 2.7-1.6 0.3-0.2 0.7-0.4 0.8-0.5 0.4-0.2 1.2-0.3 2.3-0.4 1.4-0.1 1.7-0.1 2 0.1 0.1 0.1 0.3 0.2 0.4 0.2 0.1 0 0.4 0.1 0.7 0.2 0.3 0.2 0.6 0.3 0.6 0.3 0.1 0 0.4 0.2 0.7 0.4 0.4 0.2 0.7 0.4 0.8 0.5 0.4 0.1 1.9 1.3 2.5 2 2.2 2.5 2.8 5.7 1.4 8.4-0.2 0.4-0.4 0.9-0.4 1 0 0.2-0.2 0.4-0.3 0.5-0.2 0.2-0.3 0.3-0.3 0.4 0 0-0.2 0.3-0.4 0.5-0.2 0.3-0.5 0.8-0.8 1.1-0.7 0.9-2.1 2.1-2.6 2.1-0.1 0-0.4 0.1-0.5 0.2-0.2 0-0.5 0.1-0.8 0.2-0.2 0-0.7 0.1-1.1 0.2-1 0.1-3.4 0.1-3.7-0.1-0.2-0.1-0.4-0.1-0.5-0.1-0.2 0-1.3-0.4-1.7-0.5-0.6-0.3-1-0.2-1 0.1 0 0.6 3.2 1.4 5.4 1.3h1.4v0.8c0.1 0.8 0.1 0.8-0.7 0.8-0.4 0-0.5-0.1-0.7-0.4-0.3-0.7-0.9-0.8-1.5-0.3 0 0-0.2 0.2-0.3 0.2q-0.5 0.3 0 0.9c0.7 0.7 0.1 1.4-0.7 0.7-0.7-0.5-1.5-0.1-1.7 0.8 0 0.3-0.1 0.4-0.2 0.4-0.1 0-0.3 0.1-0.3 0.2-0.2 0.7-0.3 0.7-1 0.5-0.4-0.2-0.4-0.3-0.2-1.3 0.2-0.6 0.1-1-0.1-1-0.2 0-1-0.4-1.5-0.6-0.2-0.1-0.4-0.2-0.6-0.4-0.5-0.4-1.6-0.1-1.6 0.4 0 0.2-0.4 0.1-0.7-0.3l-0.4-0.3 0.1-0.3c0.1-0.2 0.3-0.4 0.4-0.5 0.3-0.3 0.2-0.5-0.3-1-0.2-0.3-0.6-0.7-0.9-1.1-0.5-0.6-0.6-0.7-1-0.5-0.1 0-0.4 0.1-0.7 0.1l-0.5 0.1-0.4-0.5-0.3-0.5 0.2-0.2c1.2-0.8 1.3-1.1 0.9-1.8-0.2-0.3-0.3-0.6-0.3-0.7 0-0.1 0-0.2-0.1-0.2 0 0-0.1-0.2-0.1-0.3 0-0.5-0.2-0.6-0.8-0.6-0.9 0.1-1 0-1.1-0.9 0-0.7 0.1-0.8 0.7-0.9 0.7 0 0.8-0.1 0.7-0.6 0-0.4 0.1-1.1 0.4-1.7 0.3-0.7 0.1-1.1-0.6-1.4-0.9-0.4-0.9-0.4-0.9-0.8 0.2-0.7 0.4-0.8 1.3-0.5 0.5 0.2 0.7 0.1 0.7-0.3 0-0.2 0.7-1.5 0.9-1.8 0.3-0.2 0.1-0.6-0.8-1.2-0.5-0.4-0.6-0.5-0.1-0.9 0.5-0.5 1-0.6 1.4-0.2 0.3 0.3 0.6 0.3 0.9 0 0.3-0.3 0.3-0.3 1.2-0.3 1 0 1.1-0.1 1.1-1 0-1 0.8-1.2 1.6-0.3 0.5 0.5 0.9 0.5 1.2 0 0.1-0.2 2.3-2.8 2.5-2.9 0.2-0.1 1.4-0.4 2.1-0.4 0.4-0.1 0.8-0.2 0.8-0.2 0.2-0.2 0.5-1.1 0.5-1.5 0-0.4 0.2-0.6 0.5-0.5 0.1 0 0.4 0.1 0.6 0.1zm2.4 1.6c0.5 0.3 0.4 0.6-0.1 0.4-0.2-0.1-0.6-0.2-0.9-0.2-0.6-0.1-0.9-0.5-0.5-0.7 0 0 0-0.1 0-0.3 0-0.3 0.2-0.3 0.6 0.2 0.3 0.2 0.7 0.5 0.9 0.6zm13.3 0.2c-0.1 1 0.2 1.2 1.2 0.9 0.6-0.2 1.1 0.8 0.8 1.5-0.3 0.8-0.1 1.2 0.7 1.2 0.4 0 0.4 0 0.5 1 0 0.8 0 1-0.4 1.2q-0.6 0.2 0.1 1l0.4 0.4v0.6c-0.2 0.8-0.3 1-0.9 1.2-0.5 0.2-0.6 0.5-0.2 1.2 0.1 0.4 0.1 0.4 0 0.6-0.1 0.1-0.3 0.3-0.4 0.5-0.2 0.4-0.3 0.5-0.8 0.4-0.9-0.3-1.4 0-1.2 0.5 0.3 0.9-0.6 1.7-1.3 1.3-0.2-0.1-0.5-0.2-0.7-0.3-0.7-0.3-0.5-0.5 0.5-0.6l0.7-0.1v-1c0-1.9-0.2-2.2-1.5-2-0.5 0.1-0.7 0-0.7-0.3 0-0.1-0.1-0.4-0.3-0.7-0.1-0.3-0.2-0.6-0.2-0.6 0.1-0.1 0.3-0.2 0.7-0.4 0.7-0.5 0.8-0.7 0.4-1.4-0.6-1.1-0.8-1.4-1.1-1.4-0.5 0-0.7-0.5-0.3-0.7 0.2-0.1 1.2-1.4 1.3-1.7l0.1-0.3 0.6 0.1c0.8 0 0.9 0 1-0.9 0-0.7 0.2-1.7 0.4-2.1l0.1-0.2 0.3 0.3c0.2 0.2 0.2 0.2 0.2 0.8zm4.3 4.7c0.1 0.2 0.1 0.3 0 0.5q-0.3 0.5-0.3-0.3c0-0.6 0-0.6 0.3-0.2zm-21.6 1.1c-0.2 0.1-0.7 0.2-1.2 0.3-2.5 0.5-4.2 1.9-5.4 4.4-0.2 0.2-0.3 0.7-0.4 1.1-0.1 0.5-0.2 0.8-0.3 0.9-1 0.7-1.1 0.8-0.7 1.2 0.4 0.5 0.1 1.1-0.5 0.9-0.2-0.1-0.5 0-0.6 0.3-0.1 0.2-0.2 0.4-0.2 0.6-0.2 0.3-0.1 0.5 0.3 0.6 0.5 0.1 0.5 0.8 0 1-0.4 0.1-0.4 0.3-0.3 0.6 0.1 0.1 0.2 0.2 0.1 0.3-0.1 0.3 0.1 0.5 0.5 0.5q0.9 0 0.9 1c0 1 1 1.8 1.3 1 0.1-0.3 0.8 0 0.8 0.4 0 0.4 0.2 0.5 0.9 0.5l0.7 0.1 0.1-0.3c0.1-0.4 0.7-0.5 1.2-0.2 0.1 0 0.5 0.1 0.9 0.2 0.4 0 0.8 0.1 0.8 0.2 0.3 0.2 1.8 0.1 2.5-0.1 0.2-0.1 0.5-0.2 0.8-0.2 0.3-0.1 0.6-0.2 0.8-0.3 0.2-0.1 0.6-0.3 0.8-0.4 0.3-0.1 0.6-0.2 0.7-0.3 0-0.1 0.3-0.2 0.5-0.3 0.2-0.1 0.4-0.3 0.5-0.4 0.3-0.3 0.8-0.9 1-1.1 0.1-0.1 0.3-0.5 0.5-0.8 0.3-0.3 0.5-0.8 0.7-1.1 0.1-0.3 0.2-0.7 0.3-0.9 0.3-0.8 0.2-3-0.1-4.4-0.4-1.4-0.5-1.6-1-2.4-1-1.5-1.6-2-2.8-2.4-0.3 0-0.6-0.2-0.7-0.2-0.4-0.3-2.7-0.4-3.4-0.3zm2.3 0.7c0.3 0 0.6 0.1 0.7 0.2 0.1 0.1 0.3 0.1 0.4 0.1 1 0 2.5 1.4 3.5 3.3 0.6 1.4 0.8 4.2 0.3 5.5-0.2 0.6-1 1.9-1.8 2.8-0.3 0.4-1.8 1.4-2.1 1.4-0.1 0-0.4 0.1-0.7 0.3-0.3 0.1-0.7 0.3-0.9 0.3-0.2 0.1-0.5 0.2-0.6 0.2-0.8 0.3-2.2 0.2-2.3-0.3-0.2-0.6 0.3-1.1 0.9-1.1 0.2 0 0.3-0.1 0.3-0.3 0.1-0.2 0.1-0.3 0.2-0.3 0.1-0.1 0.1-0.9-0.1-1.1-0.4-0.5 0.2-1 0.9-0.9 1 0.1 2.3-0.8 2.6-1.9 0.1-0.3 0.2-0.6 0.2-0.8 0.7-1.8-1.1-4.2-3.1-4.2-0.7 0-1.5 0.2-1.8 0.4-0.1 0-0.3 0.2-0.5 0.3-0.5 0.2-0.9 0.6-0.9 0.9-0.1 0.4-0.2 0.5-0.4 0.5-0.1 0.1-0.3 0.2-0.5 0.3-0.3 0.3-0.6 0.3-0.6 0 0-0.5-0.8-0.7-1.5-0.3-1.1 0.5-1.1-0.1 0-1.9 0.9-1.5 2.6-2.7 4.2-3.1 0.3-0.1 0.8-0.2 1.1-0.3 0.6-0.1 1.8-0.2 2.5 0zm-0.9 4c0.5 0.2 1.2 0.8 1.6 1.5l0.3 0.5-0.1 0.7c-0.2 1.1-1 2.5-1.6 2.5 0 0-0.2 0.1-0.4 0.1-0.3 0.2-0.6 0.2-0.8 0 0-0.1-0.1-0.2-0.2-0.2-0.5 0-0.7-0.5-0.3-0.7 0.2-0.2 0.1-0.6-0.2-0.9-0.1-0.2-0.3-0.4-0.4-0.5 0 0-0.2-0.1-0.4-0.1q-0.6 0-0.6-0.5c0-0.1-0.1-0.3-0.2-0.5-0.4-1.1 2-2.5 3.3-1.9zm-6.1 2c0 0.5 1.2 0.9 1.7 0.6l0.3-0.2v0.2c0 0.1 0.1 0.3 0.3 0.5 0.6 0.6 0.5 0.9 0 0.5-0.7-0.6-1.7-0.9-2.1-0.6-0.1 0.1-0.6 0.3-1.1 0.4q-0.8 0.2-1.1 0.4c-0.3 0.3-0.4 0.3-0.3-0.1 0-0.3 0-0.4-0.1-0.5-0.1-0.1-0.1-0.4 0.1-0.4 0.1 0 0.2 0.1 0.2 0.2 0.3 0.3 1.8-0.3 1.5-0.7 0-0.1 0-0.2 0.1-0.3 0.1-0.2 0.5-0.3 0.5 0zm-1.5 0c0.1 0.2-0.1 0.3-0.2 0.2-0.1-0.1-0.1-0.4 0.1-0.4 0 0 0.1 0.1 0.1 0.2zm24.1 1.5c0.1 0.2 0.3 0.4 0.4 0.5l0.3 0.3 0.7-0.1c0.9-0.1 1.1 0 1.1 0.6 0 0.6 0.1 0.8 0.5 0.9 0.2 0.1 0.4 0.2 0.6 0.3l0.2 0.2-0.3 0.5c-0.3 0.6-0.4 0.6-0.6 0-0.4-1.6-2-2.5-3.9-2.1q-1.3 0.2-0.3-0.7c0.8-0.8 1-0.8 1.3-0.4zm-21.3 0.1c2.1 0.9 2.1 4.1 0.1 4.9-0.3 0.1-0.7 0.2-0.7 0.3-0.4 0.1-1 0-1.6-0.4-1.2-0.9-1.6-1.7-1.3-2.9l0.2-0.6v0.8c0 2.4 2.4 3.4 4 1.6 0.7-0.9-0.1-3.5-1-3.5-0.1 0-0.3-0.2-0.2-0.3 0.1-0.1 0.1-0.1 0.5 0.1zm18.7 0c0.2 0.1 0.3 0.2 0.3 0.3 0.1 0.2-0.7 0.1-0.9-0.1-0.3-0.3 0.2-0.5 0.6-0.2zm-16.7 0.4q0.4-0.2 0.2 0.2c0 0.2-0.1 0.3 0 0.4 0 0 0.1 0.3 0.1 0.5 0 0.2 0.1 0.7 0.2 1 0 0.3 0 0.6 0 0.8-0.2 0.4-0.1 0.5 0.1 0.6 0.3 0.1 0.2 0.3-0.1 0.3q-0.2 0-0.4 0.2c-0.2 0.4-0.6 0.8-0.8 0.9-0.1 0-0.2 0.1-0.2 0.4 0 0.3-0.2 0.4-0.4 0.2-0.1-0.1-0.2-0.1-0.5 0-0.3 0.1-0.6 0.2-0.7 0.1q-0.4 0-0.6 0.5c-0.1 0.2-0.3 0.1-0.4-0.2-0.1-0.2-1.3-1-1.7-1-0.1 0-0.2-0.1-0.3-0.3-0.1-0.1-0.3-0.4-0.4-0.5-0.1-0.2-0.3-0.4-0.3-0.5-0.2-0.3-0.5-0.5-0.6-0.4-0.2 0.2-0.2-0.1 0-0.3 0.1-0.1 0.2-0.4 0.2-0.6 0-0.2 0.1-0.4 0.2-0.5 0.1-0.2-0.1-0.5-0.4-0.6-0.3-0.1-0.3-0.3 0-0.2 0.2 0 0.3 0 0.6-0.3q0.5-0.6 0.3 0.3c-0.6 1.8-0.1 3 1.8 4 0.7 0.5 1.4 0.5 2.5 0 1.1-0.4 1.2-0.5 1.5-1.3 0.4-0.8 0.3-2.4-0.1-3.1-0.4-0.6-0.4-0.7-0.1-0.6 0.1 0.1 0.2 0.1 0.3 0zm-2.3 0.4c0.8 0.5 1.1 1.9 0.5 2.6-0.8 1-2 0.9-2.8-0.3-1-1.5 0.9-3.4 2.3-2.3zm-23.8 0.6c0.7 1.4 2 1.6 2 0.4v-0.2h0.7c0.9 0.1 0.9 0.2 0.9 1.6 0 0.5-1 1.1-1.7 1.1-1.3 0-2.4-0.7-2.7-1.8-0.1-0.2-0.2-0.5-0.3-0.7-0.1-0.4-0.1-0.5 0.5-0.6 0.2-0.1 0.4-0.1 0.4-0.1 0 0 0.1 0.1 0.2 0.3zm46.1 0.3c0.9 0.3 1.3 0.7 1.6 1.8 0.2 0.5 0.2 0.6 0 1 0 0.2-0.2 0.7-0.3 1.1l-0.1 0.6-0.2-0.3c-0.2-0.4-0.2-0.4-0.1-1 0.3-1.3 0.2-1.7-0.6-2.4-0.6-0.5-1.2-0.6-1.8-0.4-0.4 0.2-0.4 0.2-0.6 0.1l-0.3-0.2 0.2-0.1c0.6-0.4 1.4-0.5 2.2-0.2zm-0.6 1c0.1 0.1 0.4 0.3 0.6 0.5 0.7 0.7 0.1 2.4-0.9 2.4-0.3 0-1.5-0.9-1.5-1.2 0-0.3 1.2-1.8 1.5-1.8 0 0 0.1 0.1 0.3 0.1zm-2.3 0.8c0.1 0.1 0.1 0.3-0.1 0.6-0.5 0.6-0.4 0.7 0.3 1.2 0.3 0.2 0.6 0.5 0.7 0.7l0.2 0.3h1.1l1-0.1v0.3c0.1 0.1 0.1 0.4 0.2 0.5 0.1 0.2 0.2 0.9 0.4 1.9l0.1 0.9-0.3 0.2c-0.1 0.1-0.4 0.3-0.6 0.3-0.4 0.1-0.6 0.2-0.6 0.4 0 0.2-0.2 0.6-0.3 0.9-0.4 0.9-0.3 1.1 0.5 1.8 0.3 0.3 0.3 0.2-0.6 1.1-0.4 0.5-1 1.1-1.3 1.4-0.7 0.7-0.7 0.7-1.4-0.2-0.2-0.3-0.5-0.3-0.6 0.1 0 0.4 0.3 0.9 0.8 1.2 0.1 0.2 0.4 0.4 0.6 0.6l0.4 0.4h1.1c1.6 0 1.6 0 1.6 0.9 0 0.8 0 0.8-0.9 0.8-0.6 0-0.9 0.1-0.9 0.5 0 0-0.1 0.3-0.1 0.6 0 0.2 0 0.7-0.1 0.9-0.1 0.6 0 0.8 0.5 1 0.8 0.4 1 0.8 0.5 1.5-0.3 0.5-0.5 0.5-1 0-0.5-0.3-0.9-0.3-1.2 0-0.1 0.2-0.2 0.3-0.2 0.3 0 0-0.2 0.2-0.3 0.4-0.1 0.3-0.4 0.7-0.6 0.9-0.3 0.4-0.5 0.8-0.3 0.9 0.3 0.3 0.4 0.9 0.2 1.1-0.6 0.6-0.7 0.6-1.2-0.2-0.4-0.6-0.6-0.7-1.2-0.6-0.3 0.1-0.5 0.1-0.6 0.1-0.1 0-0.2 0-0.4 0.1-0.1 0-0.3 0-0.7-0.1-0.8-0.3-1 0.2-0.2 0.6 0.2 0.1 0.4 0.2 0.4 0.3 0 0 0 0.5 0 0.9 0 0.5 0 1 0 1 0 0-0.2 0.2-0.4 0.4-0.6 0.3-0.5 1 0 1.5 0.4 0.4 0.5 1.1 0.3 1.4-0.1 0.1-0.2 0.3-0.2 0.5 0 0.1-0.1 0.3-0.2 0.5-0.1 0.1-0.3 0.4-0.3 0.5-0.2 0.3-0.5 0.4-1.2 0.4-0.9-0.1-1.1 0.2-0.7 0.9 0.3 0.5 0.3 0.6 0.1 0.9-0.1 0.2-0.3 0.3-0.3 0.4-0.1 0.2-0.2 0.3-1 0.9-0.2 0.1-0.3 0.1-0.7 0-0.6-0.2-1.2-0.2-1.2 0 0 0.2-0.8 1.8-0.9 1.9-0.3 0.1-1.3 0.5-1.4 0.5-0.2 0-0.8-0.7-1.1-1.2-0.1-0.2-0.2-0.5-0.4-0.6-0.2-0.4-0.1-0.7 0.3-0.7q0.5 0 0.7-0.9c0.2-0.9 0.2-1.2-0.4-1.2-0.4 0-0.4-0.5 0.1-0.6 0.4-0.1 0.5-0.2 0.5-0.8 0-0.7 0.1-0.9 0.4-0.9 0.2 0 0.9-0.7 1.1-1.1 1-1.7 1.1-2.2 0.9-3.6-0.1-0.6-0.6-1.6-0.8-1.6-0.1 0-0.1-0.8 0.1-0.9 0.3-0.3 0.8-0.2 1 0.3 0.2 0.9 0.4 1.1 1.1 0.8 0.6-0.2 0.9-0.5 0.9-1.2 0-0.8 0.6-1 0.9-0.2 0.1 0.5 0.9 0.5 1.6 0 0.8-0.5 0.9-0.8 0.5-1.4-0.4-0.9-0.1-1.2 0.7-0.6 0.7 0.4 0.9 0.4 1.2 0 0.2-0.2 0.3-0.4 0.3-0.5 0 0 0.1-0.1 0.2-0.2 0.3-0.3 0-0.9-0.7-1.2-0.6-0.3-0.1-1.4 0.5-1.3 0.2 0 0.4 0.1 0.6 0.1q0.7 0.1 0.9-0.9 0.1-1.1-0.9-1.2c-0.5-0.1-0.6-0.2-0.6-0.7-0.1-0.5 0-0.5 0.6-0.8l0.6-0.2v-0.7c0.2-1.1-0.1-1.3-1.5-1-0.7 0.2-0.5-0.8 0.3-1.1 0.3-0.1 0.3-0.2 0.3-0.4 0-0.3 0-0.3 0.3-0.2 0.4 0.1 1.5-0.5 1.9-1.3 0.1-0.2 0.2-0.3 0.2-0.3 0.1 0 0.7-1 0.8-1.3 0-0.1 0.1-0.3 0.1-0.4 0.7-1.5 0.1-4.1-0.9-4.1 0 0-0.2-0.1-0.2-0.3-0.1-0.2-0.4-0.4-0.7-0.7-0.7-0.4-0.7-0.4-0.3-1.1 0.1-0.3 0.3-0.6 0.3-0.7 0-0.3 1.3-0.5 1.8-0.2zm5.8 1.3c0 0.1-0.3 0.5-0.5 0.5q-0.3 0-0.1-0.5c0.1-0.2 0.1-0.4 0.2-0.5 0-0.1 0.4 0.3 0.4 0.5zm-0.9 1.9c0.1 0.4-0.5 0.6-0.7 0.3-0.2-0.3-0.1-0.7 0.2-0.7 0.1 0 0.3 0 0.3-0.1 0.1-0.1 0.2 0.1 0.2 0.5zm-5.9 0.6c0.8 0.9 0.8 2.5 0.1 3.6-0.1 0.1-0.4 0.5-0.6 0.9-0.4 0.6-0.8 1-1.5 1.4-0.4 0.3-0.4 0.3-0.6-0.1-0.3-0.4-1.2-0.4-1.8 0.1-0.2 0.1-0.6-0.2-0.8-0.6-0.2-0.2 0.3-0.7 0.7-0.6 0.2 0 0.5-0.1 0.8-0.4 0.1-0.1 0.3-0.2 0.4-0.3q0.4-0.4-0.4-1.2c-0.6-0.6-0.6-0.5 0-1.2 0.3-0.3 0.6-0.6 0.7-0.7 0.1-0.3 0.4-0.3 0.6 0 0.3 0.3 1 0.1 1.3-0.6 0.4-0.7 0.7-0.8 1.1-0.3zm-10.9 3.2c0.1 0.5 0.1 0.6 0.4 0.7 0.6 0.3 1.5 0.1 1.5-0.3 0-0.4 0.6-1.1 0.8-1 0.2 0 0.2 0.2 0 0.7-0.4 0.9-0.2 1.4 0.4 1.4 0.1 0 0.2 0 0.3 0.1 0.1 0.2 0.6 0.1 0.8-0.2 0.1-0.1 0.2-0.3 0.2-0.3q0.1 0 0.1-0.1c0-0.2 0.3-0.4 0.6-0.4q0.5 0.2-0.1 0.9c-0.4 0.5-0.4 0.7 0.1 1.2 0.3 0.2 0.5 0.5 0.6 0.6 0.1 0.3 0.6 0.3 1.2 0 0.9-0.5 1.1-0.2 0.3 0.6l-0.6 0.5 0.1 0.3c0.1 0.2 0.2 0.5 0.2 0.6q0.2 0.9 1.3 0.5c0.3-0.1 0.5-0.2 0.6-0.2 0 0 0 0.2 0 0.4-0.1 0.3-0.1 0.3-0.6 0.5-0.7 0.3-0.9 0.4-0.7 0.8 0 0.2 0.1 0.6 0.1 0.8 0 0.7 0.1 0.9 0.4 0.9 0.4 0 1 0.2 1.1 0.4 0 0.3-0.2 0.4-1 0.4-0.8-0.1-1 0-1 0.6 0 0.2 0 0.4 0 0.5-0.2 0.1-0.5 0.8-0.5 1 0.1 0 0.3 0.2 0.5 0.3 0.2 0.1 0.5 0.3 0.6 0.4 0.5 0.4-0.4 0.6-1 0.2-0.5-0.4-0.8-0.4-1.2 0.2-0.7 0.7-0.7 0.9-0.2 1.6 0.1 0.2 0.1 0.2-0.1 0.4-0.2 0.3-0.5 0.2-0.7-0.2-0.4-0.7-0.7-0.7-1.8-0.2-0.6 0.3-0.6 0.4-0.5 1.1 0.2 0.9-0.2 1-0.5 0.1-0.1-0.5-0.5-0.7-0.9-0.7-1.5 0.2-1.5 0.2-1.5 1q0 0.6-0.5 0.5c-0.3 0-0.3 0-0.2-0.4 0-0.9 0-1.1-0.1-1.2-0.8-0.4-0.9-0.4-1.6-0.4-0.3 0.1-0.4 0.1-0.5 0.5-0.3 0.5-0.2 0.5-0.5 0.4-0.3 0-0.3-0.3-0.1-0.7 0.3-0.6 0.3-0.9-0.1-1.1-0.1-0.1-0.5-0.4-0.7-0.6-0.6-0.5-0.7-0.5-1.3-0.2-0.6 0.4-0.8 0.4-0.9 0-0.1-0.1 0-0.2 0.1-0.4 0.1-0.1 0.3-0.2 0.3-0.2 0.1 0 0.2-0.1 0.4-0.2 0.3-0.2 0.3-0.4-0.1-1-0.3-0.4-0.4-0.7-0.4-0.9 0-0.5-0.1-0.5-1.1-0.5h-0.9v-0.3c0-0.3 0-0.3 0.6-0.4 0.7-0.1 0.8-0.2 0.8-0.7 0-0.2 0.1-0.7 0.2-1.1 0.2-0.7 0.1-0.8-0.6-1-1.1-0.3-0.9-0.7 0.2-0.5 0.7 0.1 0.8 0.1 0.8-0.3 0-0.1 0.1-0.4 0.3-0.7 0.2-0.3 0.3-0.5 0.3-0.6 0-0.1 0.1-0.2 0.3-0.3 0.3-0.3 0.2-0.4-0.2-1.1-0.3-0.4-0.4-0.5-0.3-0.6 0.1-0.2 0.4-0.2 0.5 0 0.3 0.5 1.1 0.5 1.8-0.2 0.6-0.4 0.6-0.7 0.3-1.1-0.2-0.2-0.3-0.4-0.3-0.5 0-0.3 0.3-0.2 0.5 0.2 0.4 0.7 0.6 0.7 1.9 0.4 0.8-0.2 0.9-0.2 0.8-0.8-0.1-0.6 0.1-0.8 0.6-0.8l0.3 0.1zm-0.7 1.6c-0.2 0-0.6 0.1-0.8 0.1-1.2 0-3.7 1.4-3.7 2 0 0-0.1 0.2-0.2 0.3-0.7 0.7-1 1.7-1.1 3.5-0.3 2.6 1.3 5.4 3.7 6.6l0.7 0.3 1.3 0.1q2.2 0 3.3-0.6c0.2-0.1 0.4-0.2 0.4-0.2 0.4 0 2.2-1.4 2.7-2.1 1.5-2 1.5-5.2 0.1-7.3-0.2-0.2-0.6-0.7-1-1.1-1.3-1.3-3.5-1.9-5.4-1.6zm2.3 0.6c1.1 0.3 1.9 0.7 2.7 1.5 1.2 1.2 1.9 2.6 1.9 3.8 0 1.1-0.1 2-0.3 2.3-0.1 0.1-0.2 0.4-0.2 0.5-0.1 0.2-0.2 0.4-0.3 0.5-0.1 0-0.3 0.3-0.4 0.5-0.7 0.9-2.2 2-3.1 2.2-0.2 0.1-0.4 0.1-0.5 0.2-0.5 0.2-2.9 0.3-3.2 0.2-0.9-0.4-1.8-1.1-2.4-1.7-0.1-0.3-0.3-0.4-0.3-0.5-2.1-2-1.8-6.3 0.5-8.3 1-1 4-1.6 5.6-1.2zm-2.9 1.5c-0.2 0-0.5 0.1-0.6 0.2-0.2 0-0.3 0.1-0.4 0.1-0.4 0-1.5 1-1.7 1.5 0 0.2-0.2 0.5-0.3 0.7-0.1 0.2-0.1 0.4-0.1 0.5 0 0.1-0.1 0.2-0.1 0.2-0.5 0.5-0.2 2.7 0.5 3.6 0.1 0.1 0.2 0.3 0.2 0.4 0 0 0.2 0.3 0.4 0.5 0.9 1.2 3.4 2 4.6 1.4 0.1-0.1 0.4-0.2 0.5-0.2 1.6-0.1 3.1-3.2 2.4-5.2 0-0.1 0-0.4 0-0.5 0-0.8-1.5-2.4-2.7-2.9-0.6-0.2-2-0.5-2.3-0.5 0 0-0.2 0.1-0.4 0.2zm0.3 0.6c0 0-0.2 0.1-0.5 0.1q-0.1 0-0.1 0c0 0.1-0.1 0.2-0.3 0.2-0.1 0.1-0.4 0.3-0.6 0.4-0.3 0.2-0.6 0.3-0.6 0.2 0-0.1 0.2-0.3 0.2-0.3 0.1 0 0.3-0.1 0.5-0.3 0.2-0.1 0.5-0.3 0.6-0.3 0.1 0 0.2 0 0.2 0 0.1-0.1 0.2-0.1 0.4-0.1 0.1 0 0.2 0 0.2 0.1zm2.8 0.4c0.5 0.3 1.2 0.9 1.2 1.1q0.1 0.2-0.2-0.1c-0.2-0.1-0.4-0.3-0.5-0.4-0.5-0.3-1.3-0.8-1.3-0.8 0-0.1 0.4 0 0.8 0.2zm-1.8 0.1c-0.1 0-0.4 0-0.5 0-0.1 0 0-0.1 0.3-0.1 0.2 0 0.3 0.1 0.2 0.1zm0.4 0.6c1.7 0.5 2.2 2.4 1.3 4.3-0.9 1.7-3.1 1.8-4.2 0.2-1.5-2 0.5-5.1 2.9-4.5zm3 1c0.2 0.3 0.3 0.5 0.5 1.9 0.2 1.4-0.9 3.4-2.2 3.7-0.2 0.1-0.6 0.2-0.8 0.3-0.5 0.2-0.6 0.2-1.1 0.1-0.3-0.1-0.6-0.1-0.8-0.1-0.2 0 0.1-0.1 0.7-0.1 1.3-0.1 2.8-0.9 3.2-1.7 0.4-0.8 0.6-2.6 0.3-3.6-0.2-0.9-0.2-1.1 0.2-0.5zm-1-0.3c0.2 0.2 0.3 0.6 0 0.4-0.2-0.1-0.4-0.6-0.3-0.6 0.1 0 0.2 0.1 0.3 0.2zm0.5 2.1c0 1.2-0.5 2.3-1.2 2.6-0.1 0.1 0-0.1 0.4-0.7 0.1-0.1 0.1-0.3 0.1-0.4 0-0.1 0.1-0.3 0.2-0.4 0.2-0.1 0.2-0.4 0.3-1.2 0-1.2 0.1-1.1 0.2 0.1zm-21.1 1c0 0.1 0.1 0.2 0.1 0.3 0 0.2 0.2 0.5 0.6 0.6 0.2 0 0.3 0.1 0.4 0.1 0 0.1 0.2 0.2 0.3 0.2 0.3 0 1.5 1 1.5 1.4 0 0.1 0.1 0.3 0.2 0.4 0.4 0.7 0 3.6-0.5 3.6-0.2 0-0.4 0.6-0.2 0.9 0.2 0.4 0.1 0.5-0.4 0.5-0.2-0.1-0.5 0-1 0.2-1 0.5-1 0.5-1 0.7-0.2 1-2.8-0.3-4.1-2.2-0.9-1.2-1.6-3.3-1.6-4.7 0-0.7 0.7-1.1 3.2-1.7 0.5-0.1 1.1-0.3 1.4-0.3 0.6-0.2 1-0.2 1.1 0zm19.1 2.1c0 0.3-1.6 0.6-1.9 0.4-0.2-0.1 0.3-0.2 0.9-0.2 0.2 0.1 0.4 0 0.5-0.1 0.1-0.1 0.5-0.2 0.5-0.1zm-3.3 4.1c0.3 0 0.4 0.4 0.2 0.7-0.4 0.8-0.1 1.2 1 1.3 1.1 0.1 1.4 0.4 1.4 1.8 0 0.8 0 0.8-0.4 1.4-0.2 0.3-0.4 0.7-0.5 0.8-0.2 0.6-1.2 1.5-1.6 1.5-0.6 0-0.9-0.6-0.5-1 0.6-0.6 0-1.9-0.8-1.8-0.3 0-0.4 0-0.7-0.3l-0.4-0.4v-0.5l0.1-0.5-0.5-0.5c-0.6-0.5-0.9-0.5-1.2-0.1l-0.2 0.3-0.3-0.3c-0.5-0.3-0.5-0.9-0.1-1.4 0.6-0.5 1.4-0.8 1.6-0.6 0.1 0.2 1.1 0.7 1.3 0.7 0.4 0 0.7-0.3 0.9-0.7 0.1-0.4 0.3-0.5 0.5-0.5 0 0.1 0.2 0.1 0.2 0.1zm-12.5 2.3c0 0.2-0.3 0.3-0.4 0.3-0.2 0-0.2 0-0.1-0.1 0.2-0.2 0.5-0.3 0.5-0.2zm3.6 0.4c-0.4 0.1-0.9 0.6-1.2 1.1-0.3 0.7 0.3 1.9 1.1 2.3 0.5 0.2 1.2 0.4 1.3 0.2 0.1-0.1 0.2-0.1 0.3-0.1 0.2 0 0.9-0.5 1-0.8 0.7-1.4-0.9-3.2-2.5-2.7zm-5.7 0.1c0 0.1-0.2 0.3-0.2 0.3-0.1 0-0.1-0.1 0-0.2 0.1-0.2 0.2-0.2 0.2-0.1zm7.4 0.9c0.4 0.4 0.4 0.5 0.4 0.9-0.2 1.2-1.8 1.6-2.4 0.6-0.5-1-0.4-1.4 0.6-2 0.3-0.2 1 0.1 1.4 0.5zm-6.3 1c-0.9 0.8-0.7 2.3 0.6 3.2 0.4 0.3 1.4 0.4 1.7 0.2 0.3-0.2 0.4-0.2 0.4 0.1-0.4 1.5-0.3 2 0.5 3 0.2 0.3 0.6 0.7 0.7 0.7 1.6 0.4 2.8 0.2 3.6-0.7l0.4-0.4v-1.1c0-1.2-0.2-1.7-1-2.3-0.9-0.8-3.3-0.8-3.7 0.1-0.2 0.2-0.3 0-0.1-0.5 0.3-1.6-0.5-2.5-2.1-2.5-0.6 0-0.7 0-1 0.2zm8.3 0.2c-0.3 0.1-0.6 0.3-0.9 0.8-0.4 0.6-0.1 1.7 0.7 2.2 1.5 1 3.5-0.3 2.8-1.7-0.1-0.1-0.2-0.3-0.2-0.4 0-0.8-1.3-1.3-2.4-0.9zm-6.5 0.3c0.6 0.2 0.7 0.3 0.8 0.8 0.2 1.4-1.1 2.1-2 1.1-1.1-1.3-0.4-2.5 1.2-1.9zm8 0.2c0.2 0.1 0.5 0.8 0.6 1.3q0 0.6-0.8 1l-0.4 0.2-0.5-0.3c-1.7-0.9-0.6-3 1.1-2.2zm-3.9 2c1 0.4 1.7 2.1 1.2 3.2-0.4 0.8-2 1.3-2.6 0.9-0.1-0.1-0.3-0.2-0.4-0.2 0 0-0.2-0.2-0.4-0.4-1.5-1.8-0.1-4.1 2.2-3.5zm-6.7 1.3c-1.4 0.5-1.3 2.5 0.2 3.3 1.1 0.6 2.7-0.1 2.7-1.2 0-1.6-1.4-2.6-2.9-2.1zm9.9 0.5c-1.4 1.4-0.6 3.2 1.3 3.2 1.5 0 2.1-0.9 1.6-2.2-0.4-0.9-2.3-1.6-2.9-1zm-8.3 0.1c0.8 0.4 0.9 1.5 0.3 2.1-0.9 0.7-2.2-0.1-2.2-1.3 0-0.8 1-1.3 1.9-0.8zm10 0.4c1 0.6 0.9 2-0.2 2.1-1.1 0.2-2-0.9-1.5-1.6 0.6-0.7 1.1-0.8 1.7-0.5zm-9.1 2.7c-1.3 1.4-0.5 3.5 1.3 3.4 1.4-0.1 2.2-1.6 1.3-2.7-0.3-0.5-0.4-0.5-1-0.8-0.5-0.2-1.3-0.1-1.6 0.1zm4.4 0.2c-0.3 0.2-0.6 1-0.6 1.7 0 1.5 2 2.5 3 1.6 0.9-0.7 0.7-2.7-0.3-3.2-0.4-0.2-1.8-0.2-2.1-0.1zm-2.9 0.4c0.2 0.1 0.5 0.3 0.6 0.5l0.3 0.4-0.2 0.5c-0.2 0.8-1.1 1.1-1.7 0.6-1-1.1-0.2-2.7 1-2zm4.8 0.2c0.8 0.6 0.4 2.5-0.6 2.5-0.5 0-1.2-0.8-1.3-1.5 0-0.9 1.1-1.5 1.9-1z"/>
</svg>